solid MeshRefinement002
 facet normal 0.9994170665740967 0.0 -0.03414030000567436
  outer loop
   vertex -1.043766845703125 0.10132532501220703 0.24482531738281252
   vertex -1.044 0.0 0.23800000000000002
   vertex -1.044 0.0945 0.23800000000000002
  endloop
 endfacet
 facet normal 0.999300479888916 0.00021963562176097184 -0.03739691898226738
  outer loop
   vertex -1.0437203369140626 1.644062045621272e-18 0.24547300720214843
   vertex -1.044 0.0 0.23800000000000002
   vertex -1.043766845703125 0.10132532501220703 0.24482531738281252
  endloop
 endfacet
 facet normal 0.9947757720947266 -0.0001959306828211993 -0.10208375751972198
  outer loop
   vertex -1.043068359375 0.10811881256103516 0.2516188201904297
   vertex -1.0437203369140626 1.644062045621272e-18 0.24547300720214843
   vertex -1.043766845703125 0.10132532501220703 0.24482531738281252
  endloop
 endfacet
 facet normal 0.9855222105979919 -0.0003266267303843051 -0.169545978307724
  outer loop
   vertex -1.042883056640625 3.2789297603583354e-18 0.2529042205810547
   vertex -1.043068359375 0.10811881256103516 0.2516188201904297
   vertex -1.0419110107421876 0.11483322906494141 0.2583332214355469
  endloop
 endfacet
 facet normal 0.9937123656272888 0.0003720095264725387 -0.11196229606866837
  outer loop
   vertex -1.042883056640625 3.2789297603583354e-18 0.2529042205810547
   vertex -1.0437203369140626 1.644062045621272e-18 0.24547300720214843
   vertex -1.043068359375 0.10811881256103516 0.2516188201904297
  endloop
 endfacet
 facet normal 0.9717303514480591 -0.00040620137588120997 -0.236093208193779
  outer loop
   vertex -1.0414927978515625 4.895460376457645e-18 0.26025210571289065
   vertex -1.0419110107421876 0.11483322906494141 0.2583332214355469
   vertex -1.040304443359375 0.12143429565429688 0.2649342956542969
  endloop
 endfacet
 facet normal 0.9825672507286072 0.0004718876152765006 -0.18590693175792694
  outer loop
   vertex -1.0414927978515625 4.895460376457645e-18 0.26025210571289065
   vertex -1.042883056640625 3.2789297603583354e-18 0.2529042205810547
   vertex -1.0419110107421876 0.11483322906494141 0.2583332214355469
  endloop
 endfacet
 facet normal 0.953504741191864 -0.0004398938617669046 -0.30137762427330017
  outer loop
   vertex -1.0395572509765625 6.48461404066875e-18 0.2674755249023438
   vertex -1.040304443359375 0.12143429565429688 0.2649342956542969
   vertex -1.038262451171875 0.12788538360595703 0.2713853759765625
  endloop
 endfacet
 facet normal 0.9659243822097778 0.0005270428955554962 -0.2588236927986145
  outer loop
   vertex -1.0395572509765625 6.48461404066875e-18 0.2674755249023438
   vertex -1.0414927978515625 4.895460376457645e-18 0.26025210571289065
   vertex -1.040304443359375 0.12143429565429688 0.2649342956542969
  endloop
 endfacet
 facet normal 0.9310022592544556 -0.0004327964852564037 -0.3650132119655609
  outer loop
   vertex -1.03708740234375 8.037502412759634e-18 0.27453408813476565
   vertex -1.038262451171875 0.12788538360595703 0.2713853759765625
   vertex -1.0358026123046875 0.13415200805664063 0.27765200805664064
  endloop
 endfacet
 facet normal 0.9438852667808533 0.0005409233854152262 -0.3302731215953827
  outer loop
   vertex -1.03708740234375 8.037502412759634e-18 0.27453408813476565
   vertex -1.0395572509765625 6.48461404066875e-18 0.2674755249023438
   vertex -1.038262451171875 0.12788538360595703 0.2713853759765625
  endloop
 endfacet
 facet normal 0.904392659664154 -0.00038535241037607193 -0.42670100927352905
  outer loop
   vertex -1.034096923828125 9.545442134471522e-18 0.28138836669921874
   vertex -1.0358026123046875 0.13415200805664063 0.27765200805664064
   vertex -1.0329454345703126 0.1402023162841797 0.28370233154296876
  endloop
 endfacet
 facet normal 0.9165627956390381 0.0005161016015335917 -0.39989057183265686
  outer loop
   vertex -1.034096923828125 9.545442134471522e-18 0.28138836669921874
   vertex -1.03708740234375 8.037502412759634e-18 0.27453408813476565
   vertex -1.0358026123046875 0.13415200805664063 0.27765200805664064
  endloop
 endfacet
 facet normal 0.8739129900932312 -0.00029624285525642335 -0.4860823154449463
  outer loop
   vertex -1.0306025390625 1.1000000145781549e-17 0.28800000000000003
   vertex -1.0329454345703126 0.1402023162841797 0.28370233154296876
   vertex -1.029714599609375 0.1460074005126953 0.28950741577148437
  endloop
 endfacet
 facet normal 0.8841133713722229 0.0004508084384724498 -0.46727216243743896
  outer loop
   vertex -1.0306025390625 1.1000000145781549e-17 0.28800000000000003
   vertex -1.034096923828125 9.545442134471522e-18 0.28138836669921874
   vertex -1.0329454345703126 0.1402023162841797 0.28370233154296876
  endloop
 endfacet
 facet normal 0.8397748470306396 -0.00016399465675931424 -0.5429348349571228
  outer loop
   vertex -1.0266239013671876 1.2393041542264287e-17 0.2943320007324219
   vertex -1.029714599609375 0.1460074005126953 0.28950741577148437
   vertex -1.026135498046875 0.15154165649414064 0.29504165649414066
  endloop
 endfacet
 facet normal 0.8467254638671875 0.0003434701357036829 -0.5320298671722412
  outer loop
   vertex -1.0266239013671876 1.2393041542264287e-17 0.2943320007324219
   vertex -1.0306025390625 1.1000000145781549e-17 0.28800000000000003
   vertex -1.029714599609375 0.1460074005126953 0.28950741577148437
  endloop
 endfacet
 facet normal 0.8022789359092712 1.7661192032392137e-05 -0.5969492793083191
  outer loop
   vertex -1.0221831665039063 1.3716775314870887e-17 0.3003489685058594
   vertex -1.026135498046875 0.15154165649414064 0.29504165649414066
   vertex -1.0222357788085938 0.15678289794921876 0.30028289794921875
  endloop
 endfacet
 facet normal 0.7618079781532288 -1.7350253983750008e-05 -0.6478028297424316
  outer loop
   vertex -1.0221831665039063 1.3716775314870887e-17 0.3003489685058594
   vertex -1.0222357788085938 0.15678289794921876 0.30028289794921875
   vertex -1.0180437622070313 0.1617125244140625 0.3052125244140625
  endloop
 endfacet
 facet normal 0.8045971393585205 0.0001876760070445016 -0.593821108341217
  outer loop
   vertex -1.0221831665039063 1.3716775314870887e-17 0.3003489685058594
   vertex -1.0266239013671876 1.2393041542264287e-17 0.2943320007324219
   vertex -1.026135498046875 0.15154165649414064 0.29504165649414066
  endloop
 endfacet
 facet normal 0.7186188101768494 -0.0001784858905011788 -0.6954041719436646
  outer loop
   vertex -1.0173051757812501 1.496380093674119e-17 0.30601727294921877
   vertex -1.0180437622070313 0.1617125244140625 0.3052125244140625
   vertex -1.01358837890625 0.16631544494628905 0.3098154602050781
  endloop
 endfacet
 facet normal 0.75797039270401 0.00021580270549748093 -0.6522889733314514
  outer loop
   vertex -1.0173051757812501 1.496380093674119e-17 0.30601727294921877
   vertex -1.0221831665039063 1.3716775314870887e-17 0.3003489685058594
   vertex -1.0180437622070313 0.1617125244140625 0.3052125244140625
  endloop
 endfacet
 facet normal 0.6729052662849426 -0.00026924634585157037 -0.739728569984436
  outer loop
   vertex -1.0120172729492187 1.6127141397488664e-17 0.31130517578125
   vertex -1.01358837890625 0.16631544494628905 0.3098154602050781
   vertex -1.0088986206054689 0.1705800323486328 0.31408001708984373
  endloop
 endfacet
 facet normal 0.7071067690849304 0.0003460391308180988 -0.7071067690849304
  outer loop
   vertex -1.0120172729492187 1.6127141397488664e-17 0.31130517578125
   vertex -1.0173051757812501 1.496380093674119e-17 0.30601727294921877
   vertex -1.01358837890625 0.16631544494628905 0.3098154602050781
  endloop
 endfacet
 facet normal 0.6522886157035828 0.00040442481986247003 -0.7579706311225891
  outer loop
   vertex -1.0063489990234376 1.720029317814429e-17 0.31618313598632813
   vertex -1.0120172729492187 1.6127141397488664e-17 0.31130517578125
   vertex -1.0088986206054689 0.1705800323486328 0.31408001708984373
  endloop
 endfacet
 facet normal 0.6249545812606812 -0.0002838865329977125 -0.7806611657142639
  outer loop
   vertex -1.0063489990234376 1.720029317814429e-17 0.31618313598632813
   vertex -1.0088986206054689 0.1705800323486328 0.31408001708984373
   vertex -1.0040028686523437 0.17449786376953125 0.31799786376953126
  endloop
 endfacet
 facet normal 0.593821108341217 0.0003836325486190617 -0.8045970797538757
  outer loop
   vertex -1.00033203125 1.8177252509177927e-17 0.32062387084960936
   vertex -1.0063489990234376 1.720029317814429e-17 0.31618313598632813
   vertex -1.0040028686523437 0.17449786376953125 0.31799786376953126
  endloop
 endfacet
 facet normal 0.5750303268432617 -0.00021534791449084878 -0.8181321024894714
  outer loop
   vertex -1.00033203125 1.8177252509177927e-17 0.32062387084960936
   vertex -1.0040028686523437 0.17449786376953125 0.31799786376953126
   vertex -0.998928466796875 0.17806350708007812 0.32156350708007814
  endloop
 endfacet
 facet normal 0.5320310592651367 0.00027447164757177234 -0.846724808216095
  outer loop
   vertex -0.994 1.9052559416211577e-17 0.32460253906250003
   vertex -1.00033203125 1.8177252509177927e-17 0.32062387084960936
   vertex -0.998928466796875 0.17806350708007812 0.32156350708007814
  endloop
 endfacet
 facet normal 0.5234231352806091 -5.505402441485785e-05 -0.8520728945732117
  outer loop
   vertex -0.994 1.9052559416211577e-17 0.32460253906250003
   vertex -0.998928466796875 0.17806350708007812 0.32156350708007814
   vertex -0.9937015380859375 0.181274169921875 0.324774169921875
  endloop
 endfacet
 facet normal 0.4704321622848511 6.094184936955571e-05 -0.8824361562728882
  outer loop
   vertex -0.994 1.9052559416211577e-17 0.32460253906250003
   vertex -0.9937015380859375 0.181274169921875 0.324774169921875
   vertex -0.9883462524414063 0.18412930297851562 0.3276293029785156
  endloop
 endfacet
 facet normal 0.46726906299591064 0.0001856665185187012 -0.8841151595115662
  outer loop
   vertex -0.9873883666992188 1.9821314660678318e-17 0.32809689331054687
   vertex -0.994 1.9052559416211577e-17 0.32460253906250003
   vertex -0.9883462524414063 0.18412930297851562 0.3276293029785156
  endloop
 endfacet
 facet normal 0.416395902633667 -0.00014264801575336605 -0.9091833829879761
  outer loop
   vertex -0.9873883666992188 1.9821314660678318e-17 0.32809689331054687
   vertex -0.9883462524414063 0.18412930297851562 0.3276293029785156
   vertex -0.9828849487304687 0.186630126953125 0.330130126953125
  endloop
 endfacet
 facet normal 0.36135175824165344 -0.00023086737201083452 -0.9324295520782471
  outer loop
   vertex -0.9805341186523437 2.047922209146968e-17 0.3310873718261719
   vertex -0.9828849487304687 0.186630126953125 0.330130126953125
   vertex -0.9773379516601562 0.18877926635742187 0.3322792663574219
  endloop
 endfacet
 facet normal 0.39989209175109863 0.0003359794500283897 -0.9165621995925903
  outer loop
   vertex -0.9805341186523437 2.047922209146968e-17 0.3310873718261719
   vertex -0.9873883666992188 1.9821314660678318e-17 0.32809689331054687
   vertex -0.9828849487304687 0.186630126953125 0.330130126953125
  endloop
 endfacet
 facet normal 0.3054947555065155 -0.00019582027744036168 -0.9521937370300293
  outer loop
   vertex -0.9734755249023438 2.1022602197462784e-17 0.33355728149414066
   vertex -0.9773379516601562 0.18877926635742187 0.3322792663574219
   vertex -0.971723388671875 0.1905802459716797 0.3340802307128906
  endloop
 endfacet
 facet normal 0.3302791714668274 0.00036752992309629917 -0.9438832402229309
  outer loop
   vertex -0.9734755249023438 2.1022602197462784e-17 0.33355728149414066
   vertex -0.9805341186523437 2.047922209146968e-17 0.3310873718261719
   vertex -0.9773379516601562 0.18877926635742187 0.3322792663574219
  endloop
 endfacet
 facet normal 0.24902278184890747 -2.931093877123203e-05 -0.968497633934021
  outer loop
   vertex -0.9662520751953125 2.1448414130376992e-17 0.3354927978515625
   vertex -0.971723388671875 0.1905802459716797 0.3340802307128906
   vertex -0.966057373046875 0.1920370330810547 0.33553704833984377
  endloop
 endfacet
 facet normal 0.1921299248933792 3.133754580630921e-05 -0.9813694953918457
  outer loop
   vertex -0.9662520751953125 2.1448414130376992e-17 0.3354927978515625
   vertex -0.966057373046875 0.1920370330810547 0.33553704833984377
   vertex -0.9603539428710938 0.19315367126464844 0.3366536865234375
  endloop
 endfacet
 facet normal 0.2588188946247101 0.0002709843101911247 -0.9659258127212524
  outer loop
   vertex -0.9662520751953125 2.1448414130376992e-17 0.3354927978515625
   vertex -0.9734755249023438 2.1022602197462784e-17 0.33355728149414066
   vertex -0.971723388671875 0.1905802459716797 0.3340802307128906
  endloop
 endfacet
 facet normal 0.13497725129127502 -0.00016372365644201636 -0.9908486604690552
  outer loop
   vertex -0.9589042358398437 2.1754277727630522e-17 0.33688308715820314
   vertex -0.9603539428710938 0.19315367126464844 0.3366536865234375
   vertex -0.9546257934570312 0.19393386840820312 0.3374338684082031
  endloop
 endfacet
 facet normal 0.18591199815273285 0.00022840153542347252 -0.9825663566589355
  outer loop
   vertex -0.9589042358398437 2.1754277727630522e-17 0.33688308715820314
   vertex -0.9662520751953125 2.1448414130376992e-17 0.3354927978515625
   vertex -0.9603539428710938 0.19315367126464844 0.3366536865234375
  endloop
 endfacet
 facet normal 0.07977242022752762 -0.00017573950754012913 -0.9968131184577942
  outer loop
   vertex -0.9514730224609376 2.1938483676735807e-17 0.33772036743164063
   vertex -0.9546257934570312 0.19393386840820312 0.3374338684082031
   vertex -0.9493204345703126 0.1943583679199219 0.3378583679199219
  endloop
 endfacet
 facet normal 0.11196230351924896 0.0003521502367220819 -0.9937124252319336
  outer loop
   vertex -0.9514730224609376 2.1938483676735807e-17 0.33772036743164063
   vertex -0.9589042358398437 2.1754277727630522e-17 0.33688308715820314
   vertex -0.9546257934570312 0.19393386840820312 0.3374338684082031
  endloop
 endfacet
 facet normal 0.026610972359776497 0.0 -0.9996458888053894
  outer loop
   vertex -0.9440000000000001 0.0 0.338
   vertex -0.9493204345703126 0.1943583679199219 0.3378583679199219
   vertex -0.9440000000000001 0.1945 0.338
  endloop
 endfacet
 facet normal 0.037392765283584595 0.00029539631213992834 -0.9993005394935608
  outer loop
   vertex -0.9440000000000001 0.0 0.338
   vertex -0.9514730224609376 2.1938483676735807e-17 0.33772036743164063
   vertex -0.9493204345703126 0.1943583679199219 0.3378583679199219
  endloop
 endfacet
 facet normal 0.9994170665740967 -0.03414026275277138 0.0
  outer loop
   vertex -1.043766845703125 0.10132532501220703 0.1431746826171875
   vertex -1.044 0.0945 0.23800000000000002
   vertex -1.044 0.0945 0.15
  endloop
 endfacet
 facet normal 0.9994170069694519 -0.03414025902748108 0.0
  outer loop
   vertex -1.043766845703125 0.10132532501220703 0.24482531738281252
   vertex -1.044 0.0945 0.23800000000000002
   vertex -1.043766845703125 0.10132532501220703 0.1431746826171875
  endloop
 endfacet
 facet normal 0.9947558641433716 -0.10227785259485245 0.0
  outer loop
   vertex -1.043068359375 0.10811881256103516 0.13638117980957032
   vertex -1.043766845703125 0.10132532501220703 0.24482531738281252
   vertex -1.043766845703125 0.10132532501220703 0.1431746826171875
  endloop
 endfacet
 facet normal 0.9947558641433716 -0.10227786004543304 0.0
  outer loop
   vertex -1.043068359375 0.10811881256103516 0.2516188201904297
   vertex -1.043766845703125 0.10132532501220703 0.24482531738281252
   vertex -1.043068359375 0.10811881256103516 0.13638117980957032
  endloop
 endfacet
 facet normal 0.9854677319526672 -0.16986282169818878 0.0
  outer loop
   vertex -1.0419110107421876 0.11483322906494141 0.12966676330566407
   vertex -1.043068359375 0.10811881256103516 0.2516188201904297
   vertex -1.043068359375 0.10811881256103516 0.13638117980957032
  endloop
 endfacet
 facet normal 0.9854677319526672 -0.16986283659934998 0.0
  outer loop
   vertex -1.0419110107421876 0.11483322906494141 0.2583332214355469
   vertex -1.043068359375 0.10811881256103516 0.2516188201904297
   vertex -1.0419110107421876 0.11483322906494141 0.12966676330566407
  endloop
 endfacet
 facet normal 0.9716370701789856 -0.23647700250148773 0.0
  outer loop
   vertex -1.040304443359375 0.12143429565429688 0.12306570434570313
   vertex -1.0419110107421876 0.11483322906494141 0.2583332214355469
   vertex -1.0419110107421876 0.11483322906494141 0.12966676330566407
  endloop
 endfacet
 facet normal 0.9716370701789856 -0.23647700250148773 0.0
  outer loop
   vertex -1.040304443359375 0.12143429565429688 0.2649342956542969
   vertex -1.0419110107421876 0.11483322906494141 0.2583332214355469
   vertex -1.040304443359375 0.12143429565429688 0.12306570434570313
  endloop
 endfacet
 facet normal 0.9533785581588745 -0.3017772436141968 0.0
  outer loop
   vertex -1.038262451171875 0.12788538360595703 0.2713853759765625
   vertex -1.040304443359375 0.12143429565429688 0.12306570434570313
   vertex -1.038262451171875 0.12788538360595703 0.11661461639404297
  endloop
 endfacet
 facet normal 0.9533784985542297 -0.3017772138118744 0.0
  outer loop
   vertex -1.038262451171875 0.12788538360595703 0.2713853759765625
   vertex -1.040304443359375 0.12143429565429688 0.2649342956542969
   vertex -1.040304443359375 0.12143429565429688 0.12306570434570313
  endloop
 endfacet
 facet normal 0.9308550357818604 -0.3653886616230011 0.0
  outer loop
   vertex -1.0358026123046875 0.13415200805664063 0.27765200805664064
   vertex -1.038262451171875 0.12788538360595703 0.11661461639404297
   vertex -1.0358026123046875 0.13415200805664063 0.11034798431396485
  endloop
 endfacet
 facet normal 0.9308550953865051 -0.3653886318206787 0.0
  outer loop
   vertex -1.0358026123046875 0.13415200805664063 0.27765200805664064
   vertex -1.038262451171875 0.12788538360595703 0.2713853759765625
   vertex -1.038262451171875 0.12788538360595703 0.11661461639404297
  endloop
 endfacet
 facet normal 0.9042435884475708 -0.4270170331001282 0.0
  outer loop
   vertex -1.0329454345703126 0.1402023162841797 0.28370233154296876
   vertex -1.0358026123046875 0.13415200805664063 0.11034798431396485
   vertex -1.0329454345703126 0.1402023162841797 0.10429767608642579
  endloop
 endfacet
 facet normal 0.9042435884475708 -0.42701706290245056 0.0
  outer loop
   vertex -1.0329454345703126 0.1402023162841797 0.28370233154296876
   vertex -1.0358026123046875 0.13415200805664063 0.27765200805664064
   vertex -1.0358026123046875 0.13415200805664063 0.11034798431396485
  endloop
 endfacet
 facet normal 0.8737872242927551 -0.48630857467651367 0.0
  outer loop
   vertex -1.029714599609375 0.1460074005126953 0.28950741577148437
   vertex -1.0329454345703126 0.1402023162841797 0.10429767608642579
   vertex -1.029714599609375 0.1460074005126953 0.09849259185791016
  endloop
 endfacet
 facet normal 0.8737871646881104 -0.4863085448741913 0.0
  outer loop
   vertex -1.029714599609375 0.1460074005126953 0.28950741577148437
   vertex -1.0329454345703126 0.1402023162841797 0.28370233154296876
   vertex -1.0329454345703126 0.1402023162841797 0.10429767608642579
  endloop
 endfacet
 facet normal 0.8397007584571838 -0.5430493950843811 0.0
  outer loop
   vertex -1.026135498046875 0.15154165649414064 0.29504165649414066
   vertex -1.029714599609375 0.1460074005126953 0.09849259185791016
   vertex -1.026135498046875 0.15154165649414064 0.09295834350585938
  endloop
 endfacet
 facet normal 0.8397008180618286 -0.5430493950843811 0.0
  outer loop
   vertex -1.026135498046875 0.15154165649414064 0.29504165649414066
   vertex -1.029714599609375 0.1460074005126953 0.28950741577148437
   vertex -1.029714599609375 0.1460074005126953 0.09849259185791016
  endloop
 endfacet
 facet normal 0.8022874593734741 -0.5969379544258118 0.0
  outer loop
   vertex -1.0222357788085938 0.15678289794921876 0.30028289794921875
   vertex -1.026135498046875 0.15154165649414064 0.09295834350585938
   vertex -1.0222357788085938 0.15678289794921876 0.08771710205078125
  endloop
 endfacet
 facet normal 0.8022873997688293 -0.596937894821167 0.0
  outer loop
   vertex -1.0222357788085938 0.15678289794921876 0.30028289794921875
   vertex -1.026135498046875 0.15154165649414064 0.29504165649414066
   vertex -1.026135498046875 0.15154165649414064 0.09295834350585938
  endloop
 endfacet
 facet normal 0.7617994546890259 -0.6478129625320435 0.0
  outer loop
   vertex -1.0180437622070313 0.1617125244140625 0.3052125244140625
   vertex -1.0222357788085938 0.15678289794921876 0.08771710205078125
   vertex -1.0180437622070313 0.1617125244140625 0.0827874755859375
  endloop
 endfacet
 facet normal 0.7617993950843811 -0.6478130221366882 0.0
  outer loop
   vertex -1.0180437622070313 0.1617125244140625 0.3052125244140625
   vertex -1.0222357788085938 0.15678289794921876 0.30028289794921875
   vertex -1.0222357788085938 0.15678289794921876 0.08771710205078125
  endloop
 endfacet
 facet normal 0.7185285091400146 -0.6954975128173828 0.0
  outer loop
   vertex -1.01358837890625 0.16631544494628905 0.3098154602050781
   vertex -1.0180437622070313 0.1617125244140625 0.3052125244140625
   vertex -1.0180437622070313 0.1617125244140625 0.0827874755859375
  endloop
 endfacet
 facet normal 0.7185284495353699 -0.6954975724220276 0.0
  outer loop
   vertex -1.01358837890625 0.16631544494628905 0.3098154602050781
   vertex -1.0180437622070313 0.1617125244140625 0.0827874755859375
   vertex -1.01358837890625 0.16631544494628905 0.07818455505371094
  endloop
 endfacet
 facet normal 0.6727738976478577 -0.7398481369018555 0.0
  outer loop
   vertex -1.01358837890625 0.16631544494628905 0.3098154602050781
   vertex -1.01358837890625 0.16631544494628905 0.07818455505371094
   vertex -1.0088986206054689 0.1705800323486328 0.07391997528076172
  endloop
 endfacet
 facet normal 0.6727738976478577 -0.7398480772972107 0.0
  outer loop
   vertex -1.0088986206054689 0.1705800323486328 0.31408001708984373
   vertex -1.01358837890625 0.16631544494628905 0.3098154602050781
   vertex -1.0088986206054689 0.1705800323486328 0.07391997528076172
  endloop
 endfacet
 facet normal 0.6248146295547485 -0.7807731032371521 0.0
  outer loop
   vertex -1.0088986206054689 0.1705800323486328 0.31408001708984373
   vertex -1.0088986206054689 0.1705800323486328 0.07391997528076172
   vertex -1.0040028686523437 0.17449786376953125 0.07000213623046875
  endloop
 endfacet
 facet normal 0.6248146295547485 -0.7807731032371521 0.0
  outer loop
   vertex -1.0040028686523437 0.17449786376953125 0.31799786376953126
   vertex -1.0088986206054689 0.1705800323486328 0.31408001708984373
   vertex -1.0040028686523437 0.17449786376953125 0.07000213623046875
  endloop
 endfacet
 facet normal 0.5749290585517883 -0.8182032108306885 0.0
  outer loop
   vertex -0.998928466796875 0.17806350708007812 0.32156350708007814
   vertex -1.0040028686523437 0.17449786376953125 0.31799786376953126
   vertex -1.0040028686523437 0.17449786376953125 0.07000213623046875
  endloop
 endfacet
 facet normal 0.5749290585517883 -0.8182032108306885 0.0
  outer loop
   vertex -0.998928466796875 0.17806350708007812 0.32156350708007814
   vertex -1.0040028686523437 0.17449786376953125 0.07000213623046875
   vertex -0.998928466796875 0.17806350708007812 0.06643648529052734
  endloop
 endfacet
 facet normal 0.5233985781669617 -0.8520879149436951 0.0
  outer loop
   vertex -0.9937015380859375 0.181274169921875 0.324774169921875
   vertex -0.998928466796875 0.17806350708007812 0.06643648529052734
   vertex -0.9937015380859375 0.181274169921875 0.06322582244873047
  endloop
 endfacet
 facet normal 0.5233985781669617 -0.8520879745483398 0.0
  outer loop
   vertex -0.9937015380859375 0.181274169921875 0.324774169921875
   vertex -0.998928466796875 0.17806350708007812 0.32156350708007814
   vertex -0.998928466796875 0.17806350708007812 0.06643648529052734
  endloop
 endfacet
 facet normal 0.4704574942588806 -0.882422685623169 0.0
  outer loop
   vertex -0.9883462524414063 0.18412930297851562 0.3276293029785156
   vertex -0.9937015380859375 0.181274169921875 0.06322582244873047
   vertex -0.9883462524414063 0.18412930297851562 0.06037070465087891
  endloop
 endfacet
 facet normal 0.4704574644565582 -0.882422685623169 0.0
  outer loop
   vertex -0.9883462524414063 0.18412930297851562 0.3276293029785156
   vertex -0.9937015380859375 0.181274169921875 0.324774169921875
   vertex -0.9937015380859375 0.181274169921875 0.06322582244873047
  endloop
 endfacet
 facet normal 0.4163419008255005 -0.9092081189155579 0.0
  outer loop
   vertex -0.9828849487304687 0.186630126953125 0.330130126953125
   vertex -0.9883462524414063 0.18412930297851562 0.06037070465087891
   vertex -0.9828849487304687 0.186630126953125 0.05786988067626953
  endloop
 endfacet
 facet normal 0.36127400398254395 -0.9324596524238586 0.0
  outer loop
   vertex -0.9828849487304687 0.186630126953125 0.330130126953125
   vertex -0.9828849487304687 0.186630126953125 0.05786988067626953
   vertex -0.9773379516601562 0.18877926635742187 0.05572073745727539
  endloop
 endfacet
 facet normal 0.4163418710231781 -0.9092081785202026 0.0
  outer loop
   vertex -0.9828849487304687 0.186630126953125 0.330130126953125
   vertex -0.9883462524414063 0.18412930297851562 0.3276293029785156
   vertex -0.9883462524414063 0.18412930297851562 0.06037070465087891
  endloop
 endfacet
 facet normal 0.305440217256546 -0.952211320400238 0.0
  outer loop
   vertex -0.9773379516601562 0.18877926635742187 0.3322792663574219
   vertex -0.9773379516601562 0.18877926635742187 0.05572073745727539
   vertex -0.971723388671875 0.1905802459716797 0.053919761657714844
  endloop
 endfacet
 facet normal 0.36127403378486633 -0.9324597120285034 0.0
  outer loop
   vertex -0.9773379516601562 0.18877926635742187 0.3322792663574219
   vertex -0.9828849487304687 0.186630126953125 0.330130126953125
   vertex -0.9773379516601562 0.18877926635742187 0.05572073745727539
  endloop
 endfacet
 facet normal 0.2490108460187912 -0.9685006737709045 0.0
  outer loop
   vertex -0.971723388671875 0.1905802459716797 0.3340802307128906
   vertex -0.971723388671875 0.1905802459716797 0.053919761657714844
   vertex -0.966057373046875 0.1920370330810547 0.05246296310424805
  endloop
 endfacet
 facet normal 0.30544018745422363 -0.9522112607955933 0.0
  outer loop
   vertex -0.971723388671875 0.1905802459716797 0.3340802307128906
   vertex -0.9773379516601562 0.18877926635742187 0.3322792663574219
   vertex -0.971723388671875 0.1905802459716797 0.053919761657714844
  endloop
 endfacet
 facet normal 0.19213585555553436 -0.981368362903595 0.0
  outer loop
   vertex -0.966057373046875 0.1920370330810547 0.33553704833984377
   vertex -0.966057373046875 0.1920370330810547 0.05246296310424805
   vertex -0.9603539428710938 0.19315367126464844 0.051346324920654295
  endloop
 endfacet
 facet normal 0.2490108609199524 -0.9685007333755493 0.0
  outer loop
   vertex -0.966057373046875 0.1920370330810547 0.33553704833984377
   vertex -0.971723388671875 0.1905802459716797 0.3340802307128906
   vertex -0.966057373046875 0.1920370330810547 0.05246296310424805
  endloop
 endfacet
 facet normal 0.13495796918869019 -0.9908512830734253 0.0
  outer loop
   vertex -0.9603539428710938 0.19315367126464844 0.3366536865234375
   vertex -0.9603539428710938 0.19315367126464844 0.051346324920654295
   vertex -0.9546257934570312 0.19393386840820312 0.05056613922119141
  endloop
 endfacet
 facet normal 0.19213585555553436 -0.981368362903595 0.0
  outer loop
   vertex -0.9603539428710938 0.19315367126464844 0.3366536865234375
   vertex -0.966057373046875 0.1920370330810547 0.33553704833984377
   vertex -0.9603539428710938 0.19315367126464844 0.051346324920654295
  endloop
 endfacet
 facet normal 0.134957954287529 -0.9908513426780701 0.0
  outer loop
   vertex -0.9546257934570312 0.19393386840820312 0.3374338684082031
   vertex -0.9603539428710938 0.19315367126464844 0.3366536865234375
   vertex -0.9546257934570312 0.19393386840820312 0.05056613922119141
  endloop
 endfacet
 facet normal 0.07975844293832779 -0.9968142509460449 0.0
  outer loop
   vertex -0.9493204345703126 0.1943583679199219 0.3378583679199219
   vertex -0.9546257934570312 0.19393386840820312 0.05056613922119141
   vertex -0.9493204345703126 0.1943583679199219 0.05014163589477539
  endloop
 endfacet
 facet normal 0.0797584280371666 -0.9968141913414001 0.0
  outer loop
   vertex -0.9493204345703126 0.1943583679199219 0.3378583679199219
   vertex -0.9546257934570312 0.19393386840820312 0.3374338684082031
   vertex -0.9546257934570312 0.19393386840820312 0.05056613922119141
  endloop
 endfacet
 facet normal 0.0266109686344862 -0.9996458292007446 0.0
  outer loop
   vertex -0.9440000000000001 0.1945 0.338
   vertex -0.9493204345703126 0.1943583679199219 0.05014163589477539
   vertex -0.9440000000000001 0.1945 0.05
  endloop
 endfacet
 facet normal 0.0266109686344862 -0.9996458888053894 0.0
  outer loop
   vertex -0.9440000000000001 0.1945 0.338
   vertex -0.9493204345703126 0.1943583679199219 0.3378583679199219
   vertex -0.9493204345703126 0.1943583679199219 0.05014163589477539
  endloop
 endfacet
 facet normal 1.0 0.0 -0.0
  outer loop
   vertex -1.044 0.0945 0.15
   vertex -1.044 0.0945 0.23800000000000002
   vertex -1.044 0.0 0.15
  endloop
 endfacet
 facet normal 1.0 0.0 0.0
  outer loop
   vertex -1.044 0.0 0.15
   vertex -1.044 0.0945 0.23800000000000002
   vertex -1.044 0.0 0.23800000000000002
  endloop
 endfacet
 facet normal 0.0266116876155138 -0.0 0.9996458888053894
  outer loop
   vertex -0.9440000000000001 0.0 0.05
   vertex -0.9440000000000001 0.1945 0.05
   vertex -0.9493204345703126 0.1943583679199219 0.05014163589477539
  endloop
 endfacet
 facet normal 0.07977314293384552 -0.00017582571308594197 0.9968129992485046
  outer loop
   vertex -0.9514730224609376 -2.1938483676735807e-17 0.05027962112426758
   vertex -0.9493204345703126 0.1943583679199219 0.05014163589477539
   vertex -0.9546257934570312 0.19393386840820312 0.05056613922119141
  endloop
 endfacet
 facet normal 0.037391237914562225 0.00029533481574617326 0.9993006587028503
  outer loop
   vertex -0.9514730224609376 -2.1938483676735807e-17 0.05027962112426758
   vertex -0.9440000000000001 0.0 0.05
   vertex -0.9493204345703126 0.1943583679199219 0.05014163589477539
  endloop
 endfacet
 facet normal 0.13497789204120636 -0.00016375780978705734 0.9908485412597656
  outer loop
   vertex -0.9589042358398437 -2.1754277727630522e-17 0.05111691665649414
   vertex -0.9546257934570312 0.19393386840820312 0.05056613922119141
   vertex -0.9603539428710938 0.19315367126464844 0.051346324920654295
  endloop
 endfacet
 facet normal 0.11196432262659073 0.00035208568442612886 0.9937121868133545
  outer loop
   vertex -0.9589042358398437 -2.1754277727630522e-17 0.05111691665649414
   vertex -0.9514730224609376 -2.1938483676735807e-17 0.05027962112426758
   vertex -0.9546257934570312 0.19393386840820312 0.05056613922119141
  endloop
 endfacet
 facet normal 0.24901974201202393 -2.9326880394364707e-05 0.9684984087944031
  outer loop
   vertex -0.9662520751953125 -2.1448414130376992e-17 0.052507209777832034
   vertex -0.966057373046875 0.1920370330810547 0.05246296310424805
   vertex -0.971723388671875 0.1905802459716797 0.053919761657714844
  endloop
 endfacet
 facet normal 0.1921299397945404 3.1318049877882004e-05 0.9813694953918457
  outer loop
   vertex -0.9662520751953125 -2.1448414130376992e-17 0.052507209777832034
   vertex -0.9603539428710938 0.19315367126464844 0.051346324920654295
   vertex -0.966057373046875 0.1920370330810547 0.05246296310424805
  endloop
 endfacet
 facet normal 0.18591248989105225 0.00022836645075585693 0.9825662970542908
  outer loop
   vertex -0.9662520751953125 -2.1448414130376992e-17 0.052507209777832034
   vertex -0.9589042358398437 -2.1754277727630522e-17 0.05111691665649414
   vertex -0.9603539428710938 0.19315367126464844 0.051346324920654295
  endloop
 endfacet
 facet normal 0.30549654364585876 -0.00019579996296670288 0.9521932005882263
  outer loop
   vertex -0.9734755249023438 -2.1022602197462784e-17 0.054442718505859376
   vertex -0.971723388671875 0.1905802459716797 0.053919761657714844
   vertex -0.9773379516601562 0.18877926635742187 0.05572073745727539
  endloop
 endfacet
 facet normal 0.2588179409503937 0.0002710322441998869 0.9659261703491211
  outer loop
   vertex -0.9734755249023438 -2.1022602197462784e-17 0.054442718505859376
   vertex -0.9662520751953125 -2.1448414130376992e-17 0.052507209777832034
   vertex -0.971723388671875 0.1905802459716797 0.053919761657714844
  endloop
 endfacet
 facet normal 0.3613523542881012 -0.00023091603361535817 0.932429313659668
  outer loop
   vertex -0.9805341186523437 -2.047922209146968e-17 0.05691262435913086
   vertex -0.9773379516601562 0.18877926635742187 0.05572073745727539
   vertex -0.9828849487304687 0.186630126953125 0.05786988067626953
  endloop
 endfacet
 facet normal 0.3302786946296692 0.00036750020808540285 0.9438832998275757
  outer loop
   vertex -0.9805341186523437 -2.047922209146968e-17 0.05691262435913086
   vertex -0.9734755249023438 -2.1022602197462784e-17 0.054442718505859376
   vertex -0.9773379516601562 0.18877926635742187 0.05572073745727539
  endloop
 endfacet
 facet normal 0.416395902633667 -0.00014264801575336605 0.9091833829879761
  outer loop
   vertex -0.9873883666992188 -1.9821314660678318e-17 0.05990311431884766
   vertex -0.9828849487304687 0.186630126953125 0.05786988067626953
   vertex -0.9883462524414063 0.18412930297851562 0.06037070465087891
  endloop
 endfacet
 facet normal 0.3998933434486389 0.0003359423135407269 0.9165615439414978
  outer loop
   vertex -0.9873883666992188 -1.9821314660678318e-17 0.05990311431884766
   vertex -0.9805341186523437 -2.047922209146968e-17 0.05691262435913086
   vertex -0.9828849487304687 0.186630126953125 0.05786988067626953
  endloop
 endfacet
 facet normal 0.5234230756759644 -5.5018128477968276e-05 0.8520728945732117
  outer loop
   vertex -0.994 -1.9052559416211577e-17 0.0633974609375
   vertex -0.9937015380859375 0.181274169921875 0.06322582244873047
   vertex -0.998928466796875 0.17806350708007812 0.06643648529052734
  endloop
 endfacet
 facet normal 0.4704301655292511 6.0983300500083715e-05 0.8824372291564941
  outer loop
   vertex -0.994 -1.9052559416211577e-17 0.0633974609375
   vertex -0.9883462524414063 0.18412930297851562 0.06037070465087891
   vertex -0.9937015380859375 0.181274169921875 0.06322582244873047
  endloop
 endfacet
 facet normal 0.4672682583332062 0.0001856617454905063 0.8841155767440796
  outer loop
   vertex -0.994 -1.9052559416211577e-17 0.0633974609375
   vertex -0.9873883666992188 -1.9821314660678318e-17 0.05990311431884766
   vertex -0.9883462524414063 0.18412930297851562 0.06037070465087891
  endloop
 endfacet
 facet normal 0.5750311017036438 -0.0002153575187548995 0.8181314468383789
  outer loop
   vertex -1.00033203125 -1.8177252509177927e-17 0.06737612152099609
   vertex -0.998928466796875 0.17806350708007812 0.06643648529052734
   vertex -1.0040028686523437 0.17449786376953125 0.07000213623046875
  endloop
 endfacet
 facet normal 0.5320303440093994 0.0002744804078247398 0.8467252254486084
  outer loop
   vertex -1.00033203125 -1.8177252509177927e-17 0.06737612152099609
   vertex -0.994 -1.9052559416211577e-17 0.0633974609375
   vertex -0.998928466796875 0.17806350708007812 0.06643648529052734
  endloop
 endfacet
 facet normal 0.6249538660049438 -0.0002839391236193478 0.7806616425514221
  outer loop
   vertex -1.0063489990234376 -1.720029317814429e-17 0.07181684875488281
   vertex -1.0040028686523437 0.17449786376953125 0.07000213623046875
   vertex -1.0088986206054689 0.1705800323486328 0.07391997528076172
  endloop
 endfacet
 facet normal 0.5938203930854797 0.0003835757670458406 0.8045974969863892
  outer loop
   vertex -1.0063489990234376 -1.720029317814429e-17 0.07181684875488281
   vertex -1.00033203125 -1.8177252509177927e-17 0.06737612152099609
   vertex -1.0040028686523437 0.17449786376953125 0.07000213623046875
  endloop
 endfacet
 facet normal 0.6729072332382202 -0.0002693129354156554 0.739726722240448
  outer loop
   vertex -1.0120172729492187 -1.6127141397488664e-17 0.07669481658935547
   vertex -1.0088986206054689 0.1705800323486328 0.07391997528076172
   vertex -1.01358837890625 0.16631544494628905 0.07818455505371094
  endloop
 endfacet
 facet normal 0.6522892117500305 0.00040440584416501224 0.7579701542854309
  outer loop
   vertex -1.0120172729492187 -1.6127141397488664e-17 0.07669481658935547
   vertex -1.0063489990234376 -1.720029317814429e-17 0.07181684875488281
   vertex -1.0088986206054689 0.1705800323486328 0.07391997528076172
  endloop
 endfacet
 facet normal 0.7071072459220886 0.00034595109173096716 0.7071062326431274
  outer loop
   vertex -1.0173051757812501 -1.496380093674119e-17 0.08198272705078125
   vertex -1.0120172729492187 -1.6127141397488664e-17 0.07669481658935547
   vertex -1.01358837890625 0.16631544494628905 0.07818455505371094
  endloop
 endfacet
 facet normal 0.7186176776885986 -0.00017849697906058282 0.6954053640365601
  outer loop
   vertex -1.0173051757812501 -1.496380093674119e-17 0.08198272705078125
   vertex -1.01358837890625 0.16631544494628905 0.07818455505371094
   vertex -1.0180437622070313 0.1617125244140625 0.0827874755859375
  endloop
 endfacet
 facet normal 0.7579694986343384 0.0002157937706215307 0.6522899866104126
  outer loop
   vertex -1.0221831665039063 -1.3716775314870887e-17 0.08765101623535157
   vertex -1.0173051757812501 -1.496380093674119e-17 0.08198272705078125
   vertex -1.0180437622070313 0.1617125244140625 0.0827874755859375
  endloop
 endfacet
 facet normal 0.802278995513916 1.7603111700736918e-05 0.5969492793083191
  outer loop
   vertex -1.0221831665039063 -1.3716775314870887e-17 0.08765101623535157
   vertex -1.0222357788085938 0.15678289794921876 0.08771710205078125
   vertex -1.026135498046875 0.15154165649414064 0.09295834350585938
  endloop
 endfacet
 facet normal 0.7618080377578735 -1.741326559567824e-05 0.6478028297424316
  outer loop
   vertex -1.0221831665039063 -1.3716775314870887e-17 0.08765101623535157
   vertex -1.0180437622070313 0.1617125244140625 0.0827874755859375
   vertex -1.0222357788085938 0.15678289794921876 0.08771710205078125
  endloop
 endfacet
 facet normal 0.8397752046585083 -0.00016402543406002223 0.542934238910675
  outer loop
   vertex -1.0266239013671876 -1.2393041542264287e-17 0.0936679916381836
   vertex -1.026135498046875 0.15154165649414064 0.09295834350585938
   vertex -1.029714599609375 0.1460074005126953 0.09849259185791016
  endloop
 endfacet
 facet normal 0.8045974373817444 0.00018764239212032408 0.5938205718994141
  outer loop
   vertex -1.0266239013671876 -1.2393041542264287e-17 0.0936679916381836
   vertex -1.0221831665039063 -1.3716775314870887e-17 0.08765101623535157
   vertex -1.026135498046875 0.15154165649414064 0.09295834350585938
  endloop
 endfacet
 facet normal 0.8739129900932312 -0.0002962684375233948 0.4860823154449463
  outer loop
   vertex -1.0306025390625 -1.1000000145781549e-17 0.1
   vertex -1.029714599609375 0.1460074005126953 0.09849259185791016
   vertex -1.0329454345703126 0.1402023162841797 0.10429767608642579
  endloop
 endfacet
 facet normal 0.8467258214950562 0.0003434371028561145 0.5320294499397278
  outer loop
   vertex -1.0306025390625 -1.1000000145781549e-17 0.1
   vertex -1.0266239013671876 -1.2393041542264287e-17 0.0936679916381836
   vertex -1.029714599609375 0.1460074005126953 0.09849259185791016
  endloop
 endfacet
 facet normal 0.9043922424316406 -0.0003853813686873764 0.4267019033432007
  outer loop
   vertex -1.034096923828125 -9.545442134471522e-18 0.10661162567138673
   vertex -1.0329454345703126 0.1402023162841797 0.10429767608642579
   vertex -1.0358026123046875 0.13415200805664063 0.11034798431396485
  endloop
 endfacet
 facet normal 0.8841131329536438 0.0004507656558416784 0.4672726094722748
  outer loop
   vertex -1.034096923828125 -9.545442134471522e-18 0.10661162567138673
   vertex -1.0306025390625 -1.1000000145781549e-17 0.1
   vertex -1.0329454345703126 0.1402023162841797 0.10429767608642579
  endloop
 endfacet
 facet normal 0.9310022592544556 -0.00043281810940243304 0.3650132119655609
  outer loop
   vertex -1.03708740234375 -8.037502412759634e-18 0.11346589660644532
   vertex -1.0358026123046875 0.13415200805664063 0.11034798431396485
   vertex -1.038262451171875 0.12788538360595703 0.11661461639404297
  endloop
 endfacet
 facet normal 0.916562557220459 0.0005160887376405299 0.3998909294605255
  outer loop
   vertex -1.03708740234375 -8.037502412759634e-18 0.11346589660644532
   vertex -1.034096923828125 -9.545442134471522e-18 0.10661162567138673
   vertex -1.0358026123046875 0.13415200805664063 0.11034798431396485
  endloop
 endfacet
 facet normal 0.9535049200057983 -0.00043986845412291586 0.3013773560523987
  outer loop
   vertex -1.0395572509765625 -6.48461404066875e-18 0.12052448272705078
   vertex -1.038262451171875 0.12788538360595703 0.11661461639404297
   vertex -1.040304443359375 0.12143429565429688 0.12306570434570313
  endloop
 endfacet
 facet normal 0.9438855648040771 0.0005409313016571105 0.3302721679210663
  outer loop
   vertex -1.0395572509765625 -6.48461404066875e-18 0.12052448272705078
   vertex -1.03708740234375 -8.037502412759634e-18 0.11346589660644532
   vertex -1.038262451171875 0.12788538360595703 0.11661461639404297
  endloop
 endfacet
 facet normal 0.97173011302948 -0.00040614852332510054 0.23609377443790436
  outer loop
   vertex -1.0414927978515625 -4.895460376457645e-18 0.12774790954589843
   vertex -1.040304443359375 0.12143429565429688 0.12306570434570313
   vertex -1.0419110107421876 0.11483322906494141 0.12966676330566407
  endloop
 endfacet
 facet normal 0.9659245014190674 0.0005270644323900342 0.2588234543800354
  outer loop
   vertex -1.0414927978515625 -4.895460376457645e-18 0.12774790954589843
   vertex -1.0395572509765625 -6.48461404066875e-18 0.12052448272705078
   vertex -1.040304443359375 0.12143429565429688 0.12306570434570313
  endloop
 endfacet
 facet normal 0.9855222702026367 -0.00032662233570590615 0.16954560577869415
  outer loop
   vertex -1.042883056640625 -3.2789297603583354e-18 0.13509577941894532
   vertex -1.0419110107421876 0.11483322906494141 0.12966676330566407
   vertex -1.043068359375 0.10811881256103516 0.13638117980957032
  endloop
 endfacet
 facet normal 0.9825671315193176 0.0004719313292298466 0.1859073042869568
  outer loop
   vertex -1.042883056640625 -3.2789297603583354e-18 0.13509577941894532
   vertex -1.0414927978515625 -4.895460376457645e-18 0.12774790954589843
   vertex -1.0419110107421876 0.11483322906494141 0.12966676330566407
  endloop
 endfacet
 facet normal 0.9947757720947266 -0.00019593113393057138 0.10208374261856079
  outer loop
   vertex -1.0437203369140626 -1.644062045621272e-18 0.14252699279785155
   vertex -1.043068359375 0.10811881256103516 0.13638117980957032
   vertex -1.043766845703125 0.10132532501220703 0.1431746826171875
  endloop
 endfacet
 facet normal 0.9937123656272888 0.00037200996302999556 0.11196229606866837
  outer loop
   vertex -1.0437203369140626 -1.644062045621272e-18 0.14252699279785155
   vertex -1.042883056640625 -3.2789297603583354e-18 0.13509577941894532
   vertex -1.043068359375 0.10811881256103516 0.13638117980957032
  endloop
 endfacet
 facet normal 0.9994170665740967 -0.0 0.03414030000567436
  outer loop
   vertex -1.044 0.0 0.15
   vertex -1.043766845703125 0.10132532501220703 0.1431746826171875
   vertex -1.044 0.0945 0.15
  endloop
 endfacet
 facet normal 0.999300479888916 0.00021963562176097184 0.03739691898226738
  outer loop
   vertex -1.044 0.0 0.15
   vertex -1.0437203369140626 -1.644062045621272e-18 0.14252699279785155
   vertex -1.043766845703125 0.10132532501220703 0.1431746826171875
  endloop
 endfacet
endsolid MeshRefinement002
