solid MeshRefinement009
 facet normal 1.2277327429181158e-19 2.2013115749718384e-16 -1.0
  outer loop
   vertex -0.8529345092773438 0.15323179626464845 3.404099376512482e-17
   vertex -0.8515613403320312 0.1519423065185547 3.375730549043041e-17
   vertex -3.377132080078125 0.0 0.0
  endloop
 endfacet
 facet normal 1.2454685292270184e-19 2.201023451420874e-16 -1.0
  outer loop
   vertex -3.377132080078125 0.0 0.0
   vertex -0.85413525390625 0.1546832275390625 3.436030824558074e-17
   vertex -0.8529345092773438 0.15323179626464845 3.404099376512482e-17
  endloop
 endfacet
 facet normal 1.2081336030324668e-19 2.2016372856098373e-16 -1.0
  outer loop
   vertex -0.8515613403320312 0.1519423065185547 3.375730549043041e-17
   vertex -0.8500374145507813 0.1508350830078125 3.3513719143590806e-17
   vertex -3.377132080078125 0.0 0.0
  endloop
 endfacet
 facet normal 1.257711319280686e-19 2.200822016398105e-16 -1.0
  outer loop
   vertex -3.377132080078125 0.0 0.0
   vertex -0.8551445922851563 0.15627369689941406 3.471021416795971e-17
   vertex -0.85413525390625 0.1546832275390625 3.436030824558074e-17
  endloop
 endfacet
 facet normal 1.1766902707508241e-19 2.202164034223911e-16 -1.0
  outer loop
   vertex -0.8500374145507813 0.1508350830078125 3.3513719143590806e-17
   vertex -0.84838671875 0.14992759704589845 3.3314070089791174e-17
   vertex -3.377132080078125 0.0 0.0
  endloop
 endfacet
 facet normal 1.2714737952159785e-19 2.200604434809779e-16 -1.0
  outer loop
   vertex -3.377132080078125 0.0 0.0
   vertex -0.8559466552734375 0.15797813415527345 3.5085188877445605e-17
   vertex -0.8551445922851563 0.15627369689941406 3.471021416795971e-17
  endloop
 endfacet
 facet normal 1.136357590317592e-19 2.2028443075596747e-16 -1.0
  outer loop
   vertex -0.84838671875 0.14992759704589845 3.3314070089791174e-17
   vertex -0.84663525390625 0.14923414611816407 3.3161512679727096e-17
   vertex -3.377132080078125 0.0 0.0
  endloop
 endfacet
 facet normal 1.2825755930122058e-19 2.2004065732072564e-16 -1.0
  outer loop
   vertex -3.377132080078125 0.0 0.0
   vertex -0.8565287475585938 0.1597696533203125 3.54793234721984e-17
   vertex -0.8559466552734375 0.15797813415527345 3.5085188877445605e-17
  endloop
 endfacet
 facet normal 1.0615526748440954e-19 2.20411260704929e-16 -1.0
  outer loop
   vertex -0.84663525390625 0.14923414611816407 3.3161512679727096e-17
   vertex -0.8448107299804688 0.14876568603515625 3.305845248696877e-17
   vertex -3.377132080078125 0.0 0.0
  endloop
 endfacet
 facet normal 1.2926790872066582e-19 2.2002629746529172e-16 -1.0
  outer loop
   vertex -3.377132080078125 0.0 0.0
   vertex -0.8568817138671875 0.1616199951171875 3.588640073038524e-17
   vertex -0.8565287475585938 0.1597696533203125 3.54793234721984e-17
  endloop
 endfacet
 facet normal 8.868009476724943e-20 2.2070872808809287e-16 -1.0
  outer loop
   vertex -0.8448107299804688 0.14876568603515625 3.305845248696877e-17
   vertex -0.8429418334960938 0.14852960205078125 3.300651242664314e-17
   vertex -3.377132080078125 0.0 0.0
  endloop
 endfacet
 facet normal 1.3045381430042837e-19 2.2000693482151308e-16 -1.0
  outer loop
   vertex -3.377132080078125 0.0 0.0
   vertex -0.857 0.1635 3.6300000142265936e-17
   vertex -0.8568817138671875 0.1616199951171875 3.588640073038524e-17
  endloop
 endfacet
 facet normal 0.0 2.2222176715990547e-16 -1.0
  outer loop
   vertex -0.8429418334960938 0.14852960205078125 3.300651242664314e-17
   vertex -0.8410581665039063 0.14852960205078125 3.300651242664314e-17
   vertex -3.377132080078125 0.0 0.0
  endloop
 endfacet
 facet normal 1.3152427648595149e-19 2.199916882284625e-16 -1.0
  outer loop
   vertex -3.377132080078125 0.0 0.0
   vertex -0.8568817138671875 0.16538000488281251 3.6713599554146634e-17
   vertex -0.857 0.1635 3.6300000142265936e-17
  endloop
 endfacet
 facet normal 1.472690194148994e-17 0.0 -1.0
  outer loop
   vertex -3.377132080078125 1.044 0.0
   vertex -0.8565287475585938 0.1672303466796875 3.712067681233347e-17
   vertex -3.377132080078125 0.0 0.0
  endloop
 endfacet
 facet normal 1.325057521321398e-19 2.1997423140881518e-16 -1.0
  outer loop
   vertex -3.377132080078125 0.0 0.0
   vertex -0.8565287475585938 0.1672303466796875 3.712067681233347e-17
   vertex -0.8568817138671875 0.16538000488281251 3.6713599554146634e-17
  endloop
 endfacet
 facet normal 8.198283003964113e-17 1.933530314329068e-16 -1.0
  outer loop
   vertex -3.377132080078125 1.044 0.0
   vertex -0.8559466552734375 0.16902186584472656 3.751481140708626e-17
   vertex -0.8565287475585938 0.1672303466796875 3.712067681233347e-17
  endloop
 endfacet
 facet normal 7.842310128691103e-17 1.8309574037434303e-16 -1.0
  outer loop
   vertex -3.377132080078125 1.044 0.0
   vertex -0.8551445922851563 0.17072630310058595 3.7889786116572165e-17
   vertex -0.8559466552734375 0.16902186584472656 3.751481140708626e-17
  endloop
 endfacet
 facet normal 7.477340837075966e-17 1.7255401829906924e-16 -1.0
  outer loop
   vertex -3.377132080078125 1.044 0.0
   vertex -0.85413525390625 0.17231677246093752 3.8239692038951125e-17
   vertex -0.8551445922851563 0.17072630310058595 3.7889786116572165e-17
  endloop
 endfacet
 facet normal 7.089792161716092e-17 1.6134042704305537e-16 -1.0
  outer loop
   vertex -3.377132080078125 1.044 0.0
   vertex -0.8529345092773438 0.17376820373535157 3.8559006519407054e-17
   vertex -0.85413525390625 0.17231677246093752 3.8239692038951125e-17
  endloop
 endfacet
 facet normal 6.665080577539925e-17 1.4901781819617941e-16 -1.0
  outer loop
   vertex -3.377132080078125 1.044 0.0
   vertex -0.8515613403320312 0.17505769348144531 3.884269479410146e-17
   vertex -0.8529345092773438 0.17376820373535157 3.8559006519407054e-17
  endloop
 endfacet
 facet normal 6.180591628344756e-17 1.3493500871046001e-16 -1.0
  outer loop
   vertex -3.377132080078125 1.044 0.0
   vertex -0.8500374145507813 0.1761649169921875 3.9086281140941066e-17
   vertex -0.8515613403320312 0.17505769348144531 3.884269479410146e-17
  endloop
 endfacet
 facet normal 5.602424805650202e-17 1.1810134061452407e-16 -1.0
  outer loop
   vertex -3.377132080078125 1.044 0.0
   vertex -0.84838671875 0.17707240295410157 3.928593019474069e-17
   vertex -0.8500374145507813 0.1761649169921875 3.9086281140941066e-17
  endloop
 endfacet
 facet normal 4.8747212644350464e-17 9.68730670648858e-17 -1.0
  outer loop
   vertex -3.377132080078125 1.044 0.0
   vertex -0.84663525390625 0.17776585388183594 3.943848760480477e-17
   vertex -0.84838671875 0.17707240295410157 3.928593019474069e-17
  endloop
 endfacet
 facet normal 3.8955392660082545e-17 6.827008792508816e-17 -1.0
  outer loop
   vertex -3.377132080078125 1.044 0.0
   vertex -0.8448107299804688 0.17823431396484377 3.9541547797563094e-17
   vertex -0.84663525390625 0.17776585388183594 3.943848760480477e-17
  endloop
 endfacet
 facet normal 2.450531829111205e-17 2.6005195265017703e-17 -1.0
  outer loop
   vertex -3.377132080078125 1.044 0.0
   vertex -0.8429418334960938 0.17847039794921876 3.959348785788873e-17
   vertex -0.8448107299804688 0.17823431396484377 3.9541547797563094e-17
  endloop
 endfacet
 facet normal 0.0 -4.574435511488086e-17 -1.0
  outer loop
   vertex -3.377132080078125 1.044 0.0
   vertex -0.8410581665039063 0.17847039794921876 3.959348785788873e-17
   vertex -0.8429418334960938 0.17847039794921876 3.959348785788873e-17
  endloop
 endfacet
 facet normal 0.0 2.2000039678595146e-16 -1.0
  outer loop
   vertex -0.38293453979492187 0.15323179626464845 3.404099376512482e-17
   vertex -0.3815613708496094 0.1519423065185547 3.375730549043041e-17
   vertex -0.8310654907226562 0.15323179626464845 3.404099376512482e-17
  endloop
 endfacet
 facet normal 0.0 2.2000039678595146e-16 -1.0
  outer loop
   vertex -0.8310654907226562 0.15323179626464845 3.404099376512482e-17
   vertex -0.3815613708496094 0.1519423065185547 3.375730549043041e-17
   vertex -0.8324386596679688 0.1519423065185547 3.375730549043041e-17
  endloop
 endfacet
 facet normal 0.0 2.1999972180657162e-16 -1.0
  outer loop
   vertex -0.8310654907226562 0.15323179626464845 3.404099376512482e-17
   vertex -0.38413525390625003 0.1546832275390625 3.436030824558074e-17
   vertex -0.38293453979492187 0.15323179626464845 3.404099376512482e-17
  endloop
 endfacet
 facet normal 0.0 2.1999972180657162e-16 -1.0
  outer loop
   vertex -0.82986474609375 0.1546832275390625 3.436030824558074e-17
   vertex -0.38413525390625003 0.1546832275390625 3.436030824558074e-17
   vertex -0.8310654907226562 0.15323179626464845 3.404099376512482e-17
  endloop
 endfacet
 facet normal 0.0 2.1999745864041567e-16 -1.0
  outer loop
   vertex -0.3815613708496094 0.1519423065185547 3.375730549043041e-17
   vertex -0.38003741455078127 0.1508350830078125 3.3513719143590806e-17
   vertex -0.8324386596679688 0.1519423065185547 3.375730549043041e-17
  endloop
 endfacet
 facet normal 0.0 2.2000235554964199e-16 -1.0
  outer loop
   vertex -0.8339625854492188 0.1508350830078125 3.3513719143590806e-17
   vertex -0.38003741455078127 0.1508350830078125 3.3513719143590806e-17
   vertex -0.83561328125 0.14992759704589845 3.3314070089791174e-17
  endloop
 endfacet
 facet normal 0.0 2.1999745864041567e-16 -1.0
  outer loop
   vertex -0.8324386596679688 0.1519423065185547 3.375730549043041e-17
   vertex -0.38003741455078127 0.1508350830078125 3.3513719143590806e-17
   vertex -0.8339625854492188 0.1508350830078125 3.3513719143590806e-17
  endloop
 endfacet
 facet normal 0.0 2.2000166733537234e-16 -1.0
  outer loop
   vertex -0.82986474609375 0.1546832275390625 3.436030824558074e-17
   vertex -0.38514459228515624 0.15627369689941406 3.471021416795971e-17
   vertex -0.38413525390625003 0.1546832275390625 3.436030824558074e-17
  endloop
 endfacet
 facet normal 0.0 2.2000168057026214e-16 -1.0
  outer loop
   vertex -0.8288554077148438 0.15627369689941406 3.471021416795971e-17
   vertex -0.38514459228515624 0.15627369689941406 3.471021416795971e-17
   vertex -0.82986474609375 0.1546832275390625 3.436030824558074e-17
  endloop
 endfacet
 facet normal 0.0 2.2000235554964199e-16 -1.0
  outer loop
   vertex -0.38003741455078127 0.1508350830078125 3.3513719143590806e-17
   vertex -0.3783866882324219 0.14992759704589845 3.3314070089791174e-17
   vertex -0.83561328125 0.14992759704589845 3.3314070089791174e-17
  endloop
 endfacet
 facet normal 0.0 2.1999912623653058e-16 -1.0
  outer loop
   vertex -0.8280533447265626 0.15797813415527345 3.5085188877445605e-17
   vertex -0.3859466552734375 0.15797813415527345 3.5085188877445605e-17
   vertex -0.8288554077148438 0.15627369689941406 3.471021416795971e-17
  endloop
 endfacet
 facet normal 0.0 2.1999913947142038e-16 -1.0
  outer loop
   vertex -0.8288554077148438 0.15627369689941406 3.471021416795971e-17
   vertex -0.3859466552734375 0.15797813415527345 3.5085188877445605e-17
   vertex -0.38514459228515624 0.15627369689941406 3.471021416795971e-17
  endloop
 endfacet
 facet normal 0.0 2.1999740570085647e-16 -1.0
  outer loop
   vertex -0.83561328125 0.14992759704589845 3.3314070089791174e-17
   vertex -0.37663525390625 0.14923414611816407 3.3161512679727096e-17
   vertex -0.83736474609375 0.14923414611816407 3.3161512679727096e-17
  endloop
 endfacet
 facet normal 0.0 2.1999740570085647e-16 -1.0
  outer loop
   vertex -0.3783866882324219 0.14992759704589845 3.3314070089791174e-17
   vertex -0.37663525390625 0.14923414611816407 3.3161512679727096e-17
   vertex -0.83561328125 0.14992759704589845 3.3314070089791174e-17
  endloop
 endfacet
 facet normal 0.0 2.2000021149749425e-16 -1.0
  outer loop
   vertex -0.8280533447265626 0.15797813415527345 3.5085188877445605e-17
   vertex -0.38652874755859373 0.1597696533203125 3.54793234721984e-17
   vertex -0.3859466552734375 0.15797813415527345 3.5085188877445605e-17
  endloop
 endfacet
 facet normal 0.0 2.2000021149749425e-16 -1.0
  outer loop
   vertex -0.8274712524414063 0.1597696533203125 3.54793234721984e-17
   vertex -0.38652874755859373 0.1597696533203125 3.54793234721984e-17
   vertex -0.8280533447265626 0.15797813415527345 3.5085188877445605e-17
  endloop
 endfacet
 facet normal 0.0 2.199978159824403e-16 -1.0
  outer loop
   vertex -0.37663525390625 0.14923414611816407 3.3161512679727096e-17
   vertex -0.37481072998046877 0.14876568603515625 3.305845248696877e-17
   vertex -0.83736474609375 0.14923414611816407 3.3161512679727096e-17
  endloop
 endfacet
 facet normal 0.0 2.199978027475505e-16 -1.0
  outer loop
   vertex -0.83736474609375 0.14923414611816407 3.3161512679727096e-17
   vertex -0.37481072998046877 0.14876568603515625 3.305845248696877e-17
   vertex -0.8391892700195313 0.14876568603515625 3.305845248696877e-17
  endloop
 endfacet
 facet normal 0.0 2.200011114700007e-16 -1.0
  outer loop
   vertex -0.8274712524414063 0.1597696533203125 3.54793234721984e-17
   vertex -0.3868817138671875 0.1616199951171875 3.588640073038524e-17
   vertex -0.38652874755859373 0.1597696533203125 3.54793234721984e-17
  endloop
 endfacet
 facet normal 0.0 2.200011114700007e-16 -1.0
  outer loop
   vertex -0.8271182861328125 0.1616199951171875 3.588640073038524e-17
   vertex -0.3868817138671875 0.1616199951171875 3.588640073038524e-17
   vertex -0.8274712524414063 0.1597696533203125 3.54793234721984e-17
  endloop
 endfacet
 facet normal 0.0 -1.908846344877979e-14 -1.0
  outer loop
   vertex -0.8270000000000001 0.1635 0.0
   vertex -0.3868817138671875 0.1616199951171875 3.588640073038524e-17
   vertex -0.8271182861328125 0.1616199951171875 3.588640073038524e-17
  endloop
 endfacet
 facet normal 0.0 2.2000669659349666e-16 -1.0
  outer loop
   vertex -0.37481072998046877 0.14876568603515625 3.305845248696877e-17
   vertex -0.3729418640136719 0.14852960205078125 3.300651242664314e-17
   vertex -0.8391892700195313 0.14876568603515625 3.305845248696877e-17
  endloop
 endfacet
 facet normal 0.0 2.2222179362968507e-16 -1.0
  outer loop
   vertex -0.8410581665039063 0.14852960205078125 3.300651242664314e-17
   vertex -0.3729418640136719 0.14852960205078125 3.300651242664314e-17
   vertex -3.377132080078125 0.0 0.0
  endloop
 endfacet
 facet normal 0.0 2.2000669659349666e-16 -1.0
  outer loop
   vertex -0.8391892700195313 0.14876568603515625 3.305845248696877e-17
   vertex -0.3729418640136719 0.14852960205078125 3.300651242664314e-17
   vertex -0.8410581665039063 0.14852960205078125 3.300651242664314e-17
  endloop
 endfacet
 facet normal 8.250000321094399e-17 1.9533650413329495e-14 -1.0
  outer loop
   vertex -0.8271182861328125 0.16538000488281251 3.6713599554146634e-17
   vertex -0.387 0.1635 3.6300000142265936e-17
   vertex -0.8270000000000001 0.1635 0.0
  endloop
 endfacet
 facet normal 8.250000321094399e-17 2.2518842064832485e-16 -1.0
  outer loop
   vertex -0.8270000000000001 0.1635 0.0
   vertex -0.387 0.1635 3.6300000142265936e-17
   vertex -0.3868817138671875 0.1616199951171875 3.588640073038524e-17
  endloop
 endfacet
 facet normal 0.0 2.2222179362968507e-16 -1.0
  outer loop
   vertex -0.3729418640136719 0.14852960205078125 3.300651242664314e-17
   vertex -0.37105813598632814 0.14852960205078125 3.300651242664314e-17
   vertex -3.377132080078125 0.0 0.0
  endloop
 endfacet
 facet normal 0.0 2.1999911300164078e-16 -1.0
  outer loop
   vertex -0.8271182861328125 0.16538000488281251 3.6713599554146634e-17
   vertex -0.3868817138671875 0.16538000488281251 3.6713599554146634e-17
   vertex -0.387 0.1635 3.6300000142265936e-17
  endloop
 endfacet
 facet normal 0.0 2.200011114700007e-16 -1.0
  outer loop
   vertex -0.8274712524414063 0.1672303466796875 3.712067681233347e-17
   vertex -0.38652874755859373 0.1672303466796875 3.712067681233347e-17
   vertex -0.8271182861328125 0.16538000488281251 3.6713599554146634e-17
  endloop
 endfacet
 facet normal 0.0 2.200011114700007e-16 -1.0
  outer loop
   vertex -0.8271182861328125 0.16538000488281251 3.6713599554146634e-17
   vertex -0.38652874755859373 0.1672303466796875 3.712067681233347e-17
   vertex -0.3868817138671875 0.16538000488281251 3.6713599554146634e-17
  endloop
 endfacet
 facet normal 0.0 2.2000021149749425e-16 -1.0
  outer loop
   vertex -0.8280533447265626 0.16902186584472656 3.751481140708626e-17
   vertex -0.3859466552734375 0.16902186584472656 3.751481140708626e-17
   vertex -0.8274712524414063 0.1672303466796875 3.712067681233347e-17
  endloop
 endfacet
 facet normal 0.0 2.2000021149749425e-16 -1.0
  outer loop
   vertex -0.8274712524414063 0.1672303466796875 3.712067681233347e-17
   vertex -0.3859466552734375 0.16902186584472656 3.751481140708626e-17
   vertex -0.38652874755859373 0.1672303466796875 3.712067681233347e-17
  endloop
 endfacet
 facet normal 0.0 2.1999913947142038e-16 -1.0
  outer loop
   vertex -0.8288554077148438 0.17072630310058595 3.7889786116572165e-17
   vertex -0.38514459228515624 0.17072630310058595 3.7889786116572165e-17
   vertex -0.8280533447265626 0.16902186584472656 3.751481140708626e-17
  endloop
 endfacet
 facet normal 0.0 2.1999912623653058e-16 -1.0
  outer loop
   vertex -0.8280533447265626 0.16902186584472656 3.751481140708626e-17
   vertex -0.38514459228515624 0.17072630310058595 3.7889786116572165e-17
   vertex -0.3859466552734375 0.16902186584472656 3.751481140708626e-17
  endloop
 endfacet
 facet normal 0.0 2.2000166733537234e-16 -1.0
  outer loop
   vertex -0.82986474609375 0.17231677246093752 3.8239692038951125e-17
   vertex -0.38413525390625003 0.17231677246093752 3.8239692038951125e-17
   vertex -0.8288554077148438 0.17072630310058595 3.7889786116572165e-17
  endloop
 endfacet
 facet normal 0.0 2.2000168057026214e-16 -1.0
  outer loop
   vertex -0.8288554077148438 0.17072630310058595 3.7889786116572165e-17
   vertex -0.38413525390625003 0.17231677246093752 3.8239692038951125e-17
   vertex -0.38514459228515624 0.17072630310058595 3.7889786116572165e-17
  endloop
 endfacet
 facet normal 0.0 2.1999972180657162e-16 -1.0
  outer loop
   vertex -0.8310654907226562 0.17376820373535157 3.8559006519407054e-17
   vertex -0.38293453979492187 0.17376820373535157 3.8559006519407054e-17
   vertex -0.82986474609375 0.17231677246093752 3.8239692038951125e-17
  endloop
 endfacet
 facet normal 0.0 2.1999972180657162e-16 -1.0
  outer loop
   vertex -0.82986474609375 0.17231677246093752 3.8239692038951125e-17
   vertex -0.38293453979492187 0.17376820373535157 3.8559006519407054e-17
   vertex -0.38413525390625003 0.17231677246093752 3.8239692038951125e-17
  endloop
 endfacet
 facet normal 0.0 2.2000042325573106e-16 -1.0
  outer loop
   vertex -0.8324386596679688 0.17505769348144531 3.884269479410146e-17
   vertex -0.3815613708496094 0.17505769348144531 3.884269479410146e-17
   vertex -0.8310654907226562 0.17376820373535157 3.8559006519407054e-17
  endloop
 endfacet
 facet normal 0.0 2.2000039678595146e-16 -1.0
  outer loop
   vertex -0.8310654907226562 0.17376820373535157 3.8559006519407054e-17
   vertex -0.3815613708496094 0.17505769348144531 3.884269479410146e-17
   vertex -0.38293453979492187 0.17376820373535157 3.8559006519407054e-17
  endloop
 endfacet
 facet normal 0.0 2.1999744540552587e-16 -1.0
  outer loop
   vertex -0.8339625854492188 0.1761649169921875 3.9086281140941066e-17
   vertex -0.38003741455078127 0.1761649169921875 3.9086281140941066e-17
   vertex -0.8324386596679688 0.17505769348144531 3.884269479410146e-17
  endloop
 endfacet
 facet normal 0.0 2.2000236878453179e-16 -1.0
  outer loop
   vertex -0.83561328125 0.17707240295410157 3.928593019474069e-17
   vertex -0.38003741455078127 0.1761649169921875 3.9086281140941066e-17
   vertex -0.8339625854492188 0.1761649169921875 3.9086281140941066e-17
  endloop
 endfacet
 facet normal 0.0 2.1999745864041567e-16 -1.0
  outer loop
   vertex -0.8324386596679688 0.17505769348144531 3.884269479410146e-17
   vertex -0.38003741455078127 0.1761649169921875 3.9086281140941066e-17
   vertex -0.3815613708496094 0.17505769348144531 3.884269479410146e-17
  endloop
 endfacet
 facet normal 0.0 2.2000235554964199e-16 -1.0
  outer loop
   vertex -0.83561328125 0.17707240295410157 3.928593019474069e-17
   vertex -0.3783866882324219 0.17707240295410157 3.928593019474069e-17
   vertex -0.38003741455078127 0.1761649169921875 3.9086281140941066e-17
  endloop
 endfacet
 facet normal 0.0 2.1999740570085647e-16 -1.0
  outer loop
   vertex -0.83736474609375 0.17776585388183594 3.943848760480477e-17
   vertex -0.37663525390625 0.17776585388183594 3.943848760480477e-17
   vertex -0.83561328125 0.17707240295410157 3.928593019474069e-17
  endloop
 endfacet
 facet normal 0.0 2.1999740570085647e-16 -1.0
  outer loop
   vertex -0.83561328125 0.17707240295410157 3.928593019474069e-17
   vertex -0.37663525390625 0.17776585388183594 3.943848760480477e-17
   vertex -0.3783866882324219 0.17707240295410157 3.928593019474069e-17
  endloop
 endfacet
 facet normal 0.0 2.199978027475505e-16 -1.0
  outer loop
   vertex -0.8391892700195313 0.17823431396484377 3.9541547797563094e-17
   vertex -0.37481072998046877 0.17823431396484377 3.9541547797563094e-17
   vertex -0.83736474609375 0.17776585388183594 3.943848760480477e-17
  endloop
 endfacet
 facet normal 0.0 2.199978159824403e-16 -1.0
  outer loop
   vertex -0.83736474609375 0.17776585388183594 3.943848760480477e-17
   vertex -0.37481072998046877 0.17823431396484377 3.9541547797563094e-17
   vertex -0.37663525390625 0.17776585388183594 3.943848760480477e-17
  endloop
 endfacet
 facet normal 0.0 2.2000670982838647e-16 -1.0
  outer loop
   vertex -0.8410581665039063 0.17847039794921876 3.959348785788873e-17
   vertex -0.3729418640136719 0.17847039794921876 3.959348785788873e-17
   vertex -0.8391892700195313 0.17823431396484377 3.9541547797563094e-17
  endloop
 endfacet
 facet normal 0.0 2.2000669659349666e-16 -1.0
  outer loop
   vertex -0.8391892700195313 0.17823431396484377 3.9541547797563094e-17
   vertex -0.3729418640136719 0.17847039794921876 3.959348785788873e-17
   vertex -0.37481072998046877 0.17823431396484377 3.9541547797563094e-17
  endloop
 endfacet
 facet normal 0.0 -4.574480510113409e-17 -1.0
  outer loop
   vertex -3.377132080078125 1.044 0.0
   vertex -0.3729418640136719 0.17847039794921876 3.959348785788873e-17
   vertex -0.8410581665039063 0.17847039794921876 3.959348785788873e-17
  endloop
 endfacet
 facet normal -5.1174307308591593e-20 2.2002321373596812e-16 -1.0
  outer loop
   vertex -0.35805334472656253 0.15797813415527345 3.5085188877445605e-17
   vertex 6.0188681640625 0.0 0.0
   vertex -0.35885540771484375 0.15627369689941406 3.471021416795971e-17
  endloop
 endfacet
 facet normal -5.1330644444364116e-20 2.2001690069353312e-16 -1.0
  outer loop
   vertex -0.35747125244140626 0.1597696533203125 3.54793234721984e-17
   vertex 6.0188681640625 0.0 0.0
   vertex -0.35805334472656253 0.15797813415527345 3.5085188877445605e-17
  endloop
 endfacet
 facet normal -5.147932046594772e-20 2.2001093175823294e-16 -1.0
  outer loop
   vertex -0.3571182861328125 0.1616199951171875 3.588640073038524e-17
   vertex 6.0188681640625 0.0 0.0
   vertex -0.35747125244140626 0.1597696533203125 3.54793234721984e-17
  endloop
 endfacet
 facet normal -4.88707729137867e-16 -1.905771276466267e-14 -1.0
  outer loop
   vertex -0.357 0.1635 0.0
   vertex 6.0188681640625 0.0 0.0
   vertex -0.3571182861328125 0.1616199951171875 3.588640073038524e-17
  endloop
 endfacet
 facet normal 0.0 2.2222179362968507e-16 -1.0
  outer loop
   vertex -0.37105813598632814 0.14852960205078125 3.300651242664314e-17
   vertex 6.0188681640625 0.0 0.0
   vertex -3.377132080078125 0.0 0.0
  endloop
 endfacet
 facet normal 5.015886650458815e-16 1.9560020243043416e-14 -1.0
  outer loop
   vertex -0.3571182861328125 0.16538000488281251 3.6713599554146634e-17
   vertex 6.0188681640625 0.0 0.0
   vertex -0.357 0.1635 0.0
  endloop
 endfacet
 facet normal -4.348596724529237e-20 2.2035096254699633e-16 -1.0
  outer loop
   vertex -0.3691892700195313 0.14876568603515625 3.305845248696877e-17
   vertex 6.0188681640625 0.0 0.0
   vertex -0.37105813598632814 0.14852960205078125 3.300651242664314e-17
  endloop
 endfacet
 facet normal -4.7409792184991425e-20 2.2018244269516213e-16 -1.0
  outer loop
   vertex -0.36736474609375 0.14923414611816407 3.3161512679727096e-17
   vertex 6.0188681640625 0.0 0.0
   vertex -0.3691892700195313 0.14876568603515625 3.305845248696877e-17
  endloop
 endfacet
 facet normal -4.885104777361424e-20 2.2012079457846978e-16 -1.0
  outer loop
   vertex -0.3656133117675781 0.14992759704589845 3.3314070089791174e-17
   vertex 6.0188681640625 0.0 0.0
   vertex -0.36736474609375 0.14923414611816407 3.3161512679727096e-17
  endloop
 endfacet
 facet normal -4.9517076800735745e-20 2.2009244544451636e-16 -1.0
  outer loop
   vertex -0.3639625854492188 0.1508350830078125 3.3513719143590806e-17
   vertex 6.0188681640625 0.0 0.0
   vertex -0.3656133117675781 0.14992759704589845 3.3314070089791174e-17
  endloop
 endfacet
 facet normal -5.0131410270746954e-20 2.200664521209475e-16 -1.0
  outer loop
   vertex -0.36243862915039066 0.1519423065185547 3.375730549043041e-17
   vertex 6.0188681640625 0.0 0.0
   vertex -0.3639625854492188 0.1508350830078125 3.3513719143590806e-17
  endloop
 endfacet
 facet normal -5.0425195097522525e-20 2.200540907338735e-16 -1.0
  outer loop
   vertex -0.3610654602050781 0.15323179626464845 3.404099376512482e-17
   vertex 6.0188681640625 0.0 0.0
   vertex -0.36243862915039066 0.1519423065185547 3.375730549043041e-17
  endloop
 endfacet
 facet normal -5.072319660671756e-20 2.200417028770199e-16 -1.0
  outer loop
   vertex -0.35986474609375 0.1546832275390625 3.436030824558074e-17
   vertex 6.0188681640625 0.0 0.0
   vertex -0.3610654602050781 0.15323179626464845 3.404099376512482e-17
  endloop
 endfacet
 facet normal -5.090991970530433e-20 2.2003397370137621e-16 -1.0
  outer loop
   vertex -0.35885540771484375 0.15627369689941406 3.471021416795971e-17
   vertex 6.0188681640625 0.0 0.0
   vertex -0.35986474609375 0.1546832275390625 3.436030824558074e-17
  endloop
 endfacet
 facet normal -3.515058352674278e-17 2.1329589278041726e-16 -1.0
  outer loop
   vertex -0.35747125244140626 0.1672303466796875 3.712067681233347e-17
   vertex 6.0188681640625 1.044 0.0
   vertex -0.3571182861328125 0.16538000488281251 3.6713599554146634e-17
  endloop
 endfacet
 facet normal -3.452976131596458e-17 2.0878095570864562e-16 -1.0
  outer loop
   vertex -0.35805334472656253 0.16902186584472656 3.751481140708626e-17
   vertex 6.0188681640625 1.044 0.0
   vertex -0.35747125244140626 0.1672303466796875 3.712067681233347e-17
  endloop
 endfacet
 facet normal -3.388137082973122e-17 2.0405543830525269e-16 -1.0
  outer loop
   vertex -0.35885540771484375 0.17072630310058595 3.7889786116572165e-17
   vertex 6.0188681640625 1.044 0.0
   vertex -0.35805334472656253 0.16902186584472656 3.751481140708626e-17
  endloop
 endfacet
 facet normal -3.318150323961745e-17 1.9894413709905482e-16 -1.0
  outer loop
   vertex -0.35986474609375 0.17231677246093752 3.8239692038951125e-17
   vertex 6.0188681640625 1.044 0.0
   vertex -0.35885540771484375 0.17072630310058595 3.7889786116572165e-17
  endloop
 endfacet
 facet normal -3.2396459207467874e-17 1.9319938759720874e-16 -1.0
  outer loop
   vertex -0.3610654602050781 0.17376820373535157 3.8559006519407054e-17
   vertex 6.0188681640625 1.044 0.0
   vertex -0.35986474609375 0.17231677246093752 3.8239692038951125e-17
  endloop
 endfacet
 facet normal -3.147964861246105e-17 1.8647795616761925e-16 -1.0
  outer loop
   vertex -0.36243862915039066 0.17505769348144531 3.884269479410146e-17
   vertex 6.0188681640625 1.044 0.0
   vertex -0.3610654602050781 0.17376820373535157 3.8559006519407054e-17
  endloop
 endfacet
 facet normal -3.0354855032956344e-17 1.7821775704044432e-16 -1.0
  outer loop
   vertex -0.3639625854492188 0.1761649169921875 3.9086281140941066e-17
   vertex 6.0188681640625 1.044 0.0
   vertex -0.36243862915039066 0.17505769348144531 3.884269479410146e-17
  endloop
 endfacet
 facet normal -2.889079167085179e-17 1.6744971834957602e-16 -1.0
  outer loop
   vertex -0.3656133117675781 0.17707240295410157 3.928593019474069e-17
   vertex 6.0188681640625 1.044 0.0
   vertex -0.3639625854492188 0.1761649169921875 3.9086281140941066e-17
  endloop
 endfacet
 facet normal -5.758105160016357e-18 0.0 -1.0
  outer loop
   vertex -0.3571182861328125 0.16538000488281251 3.6713599554146634e-17
   vertex 6.0188681640625 1.044 0.0
   vertex 6.0188681640625 0.0 0.0
  endloop
 endfacet
 facet normal 0.0 -4.574481171857899e-17 -1.0
  outer loop
   vertex -3.377132080078125 1.044 0.0
   vertex 6.0188681640625 1.044 0.0
   vertex -0.3729418640136719 0.17847039794921876 3.959348785788873e-17
  endloop
 endfacet
 facet normal 0.0 -4.574481171857899e-17 -1.0
  outer loop
   vertex -0.3729418640136719 0.17847039794921876 3.959348785788873e-17
   vertex 6.0188681640625 1.044 0.0
   vertex -0.37105813598632814 0.17847039794921876 3.959348785788873e-17
  endloop
 endfacet
 facet normal -1.737075977638908e-17 8.249791209835545e-17 -1.0
  outer loop
   vertex -0.37105813598632814 0.17847039794921876 3.959348785788873e-17
   vertex 6.0188681640625 1.044 0.0
   vertex -0.3691892700195313 0.17823431396484377 3.9541547797563094e-17
  endloop
 endfacet
 facet normal -2.356645671533579e-17 1.2821291553638048e-16 -1.0
  outer loop
   vertex -0.3691892700195313 0.17823431396484377 3.9541547797563094e-17
   vertex 6.0188681640625 1.044 0.0
   vertex -0.36736474609375 0.17776585388183594 3.943848760480477e-17
  endloop
 endfacet
 facet normal -2.682599666068672e-17 1.522435578873402e-16 -1.0
  outer loop
   vertex -0.36736474609375 0.17776585388183594 3.943848760480477e-17
   vertex 6.0188681640625 1.044 0.0
   vertex -0.3656133117675781 0.17707240295410157 3.928593019474069e-17
  endloop
 endfacet
endsolid MeshRefinement009
