solid MeshRefinement001
 facet normal 0.0 0.0 1.0
  outer loop
   vertex -0.3610654602050781 0.15323179626464845 0.05
   vertex -0.36243862915039066 0.1519423065185547 0.05
   vertex 0.0 0.0 0.05
  endloop
 endfacet
 facet normal 0.0 0.0 1.0
  outer loop
   vertex 0.0 0.0 0.05
   vertex -0.35986474609375 0.1546832275390625 0.05
   vertex -0.3610654602050781 0.15323179626464845 0.05
  endloop
 endfacet
 facet normal 0.0 0.0 1.0
  outer loop
   vertex -0.36243862915039066 0.1519423065185547 0.05
   vertex -0.3639625854492188 0.1508350830078125 0.05
   vertex 0.0 0.0 0.05
  endloop
 endfacet
 facet normal 0.0 0.0 1.0
  outer loop
   vertex 0.0 0.0 0.05
   vertex -0.35885540771484375 0.15627369689941406 0.05
   vertex -0.35986474609375 0.1546832275390625 0.05
  endloop
 endfacet
 facet normal 0.0 0.0 1.0
  outer loop
   vertex -0.3639625854492188 0.1508350830078125 0.05
   vertex -0.3656133117675781 0.14992759704589845 0.05
   vertex 0.0 0.0 0.05
  endloop
 endfacet
 facet normal 0.0 0.0 1.0
  outer loop
   vertex 0.0 0.1945 0.05
   vertex -0.35805334472656253 0.15797813415527345 0.05
   vertex 0.0 0.0 0.05
  endloop
 endfacet
 facet normal 0.0 0.0 1.0
  outer loop
   vertex 0.0 0.0 0.05
   vertex -0.35805334472656253 0.15797813415527345 0.05
   vertex -0.35885540771484375 0.15627369689941406 0.05
  endloop
 endfacet
 facet normal 0.0 0.0 1.0
  outer loop
   vertex -0.3656133117675781 0.14992759704589845 0.05
   vertex -0.36736474609375 0.14923414611816407 0.05
   vertex 0.0 0.0 0.05
  endloop
 endfacet
 facet normal 0.0 0.0 1.0
  outer loop
   vertex 0.0 0.1945 0.05
   vertex -0.35747125244140626 0.1597696533203125 0.05
   vertex -0.35805334472656253 0.15797813415527345 0.05
  endloop
 endfacet
 facet normal 0.0 0.0 1.0
  outer loop
   vertex -0.36736474609375 0.14923414611816407 0.05
   vertex -0.3691892700195313 0.14876568603515625 0.05
   vertex 0.0 0.0 0.05
  endloop
 endfacet
 facet normal 0.0 0.0 1.0
  outer loop
   vertex 0.0 0.1945 0.05
   vertex -0.3571182861328125 0.1616199951171875 0.05
   vertex -0.35747125244140626 0.1597696533203125 0.05
  endloop
 endfacet
 facet normal 0.0 0.0 1.0
  outer loop
   vertex -0.3691892700195313 0.14876568603515625 0.05
   vertex -0.37105813598632814 0.14852960205078125 0.05
   vertex 0.0 0.0 0.05
  endloop
 endfacet
 facet normal 0.0 0.0 1.0
  outer loop
   vertex 0.0 0.1945 0.05
   vertex -0.357 0.1635 0.05
   vertex -0.3571182861328125 0.1616199951171875 0.05
  endloop
 endfacet
 facet normal 0.0 0.0 1.0
  outer loop
   vertex -0.37105813598632814 0.14852960205078125 0.05
   vertex -0.3729418640136719 0.14852960205078125 0.05
   vertex 0.0 0.0 0.05
  endloop
 endfacet
 facet normal 0.0 0.0 1.0
  outer loop
   vertex 0.0 0.1945 0.05
   vertex -0.3571182861328125 0.16538000488281251 0.05
   vertex -0.357 0.1635 0.05
  endloop
 endfacet
 facet normal 0.0 0.0 1.0
  outer loop
   vertex 0.0 0.1945 0.05
   vertex -0.35747125244140626 0.1672303466796875 0.05
   vertex -0.3571182861328125 0.16538000488281251 0.05
  endloop
 endfacet
 facet normal 0.0 0.0 1.0
  outer loop
   vertex 0.0 0.1945 0.05
   vertex -0.35805334472656253 0.16902186584472656 0.05
   vertex -0.35747125244140626 0.1672303466796875 0.05
  endloop
 endfacet
 facet normal 0.0 0.0 1.0
  outer loop
   vertex 0.0 0.1945 0.05
   vertex -0.35885540771484375 0.17072630310058595 0.05
   vertex -0.35805334472656253 0.16902186584472656 0.05
  endloop
 endfacet
 facet normal 0.0 0.0 1.0
  outer loop
   vertex 0.0 0.1945 0.05
   vertex -0.35986474609375 0.17231677246093752 0.05
   vertex -0.35885540771484375 0.17072630310058595 0.05
  endloop
 endfacet
 facet normal 0.0 0.0 1.0
  outer loop
   vertex 0.0 0.1945 0.05
   vertex -0.3610654602050781 0.17376820373535157 0.05
   vertex -0.35986474609375 0.17231677246093752 0.05
  endloop
 endfacet
 facet normal 0.0 0.0 1.0
  outer loop
   vertex 0.0 0.1945 0.05
   vertex -0.36243862915039066 0.17505769348144531 0.05
   vertex -0.3610654602050781 0.17376820373535157 0.05
  endloop
 endfacet
 facet normal 0.0 0.0 1.0
  outer loop
   vertex 0.0 0.1945 0.05
   vertex -0.3639625854492188 0.1761649169921875 0.05
   vertex -0.36243862915039066 0.17505769348144531 0.05
  endloop
 endfacet
 facet normal 0.0 0.0 1.0
  outer loop
   vertex 0.0 0.1945 0.05
   vertex -0.3656133117675781 0.17707240295410157 0.05
   vertex -0.3639625854492188 0.1761649169921875 0.05
  endloop
 endfacet
 facet normal 0.0 0.0 1.0
  outer loop
   vertex 0.0 0.1945 0.05
   vertex -0.36736474609375 0.17776585388183594 0.05
   vertex -0.3656133117675781 0.17707240295410157 0.05
  endloop
 endfacet
 facet normal 0.0 0.0 1.0
  outer loop
   vertex -0.3729418640136719 0.14852960205078125 0.05
   vertex -0.9440000000000001 0.0 0.05
   vertex 0.0 0.0 0.05
  endloop
 endfacet
 facet normal 0.0 0.0 1.0
  outer loop
   vertex -0.37481072998046877 0.14876568603515625 0.05
   vertex -0.9440000000000001 0.0 0.05
   vertex -0.3729418640136719 0.14852960205078125 0.05
  endloop
 endfacet
 facet normal 0.0 0.0 1.0
  outer loop
   vertex -0.37663525390625 0.14923414611816407 0.05
   vertex -0.9440000000000001 0.0 0.05
   vertex -0.37481072998046877 0.14876568603515625 0.05
  endloop
 endfacet
 facet normal 0.0 0.0 1.0
  outer loop
   vertex -0.3783866882324219 0.14992759704589845 0.05
   vertex -0.9440000000000001 0.0 0.05
   vertex -0.37663525390625 0.14923414611816407 0.05
  endloop
 endfacet
 facet normal 0.0 0.0 1.0
  outer loop
   vertex -0.38003741455078127 0.1508350830078125 0.05
   vertex -0.9440000000000001 0.0 0.05
   vertex -0.3783866882324219 0.14992759704589845 0.05
  endloop
 endfacet
 facet normal 0.0 0.0 1.0
  outer loop
   vertex -0.3815613708496094 0.1519423065185547 0.05
   vertex -0.9440000000000001 0.0 0.05
   vertex -0.38003741455078127 0.1508350830078125 0.05
  endloop
 endfacet
 facet normal -0.0 0.0 1.0
  outer loop
   vertex -0.8310654907226562 0.15323179626464845 0.05
   vertex -0.8324386596679688 0.1519423065185547 0.05
   vertex -0.38293453979492187 0.15323179626464845 0.05
  endloop
 endfacet
 facet normal 0.0 0.0 1.0
  outer loop
   vertex -0.38293453979492187 0.15323179626464845 0.05
   vertex -0.8324386596679688 0.1519423065185547 0.05
   vertex -0.3815613708496094 0.1519423065185547 0.05
  endloop
 endfacet
 facet normal 0.0 0.0 1.0
  outer loop
   vertex -0.3815613708496094 0.1519423065185547 0.05
   vertex -0.8324386596679688 0.1519423065185547 0.05
   vertex -0.9440000000000001 0.0 0.05
  endloop
 endfacet
 facet normal 0.0 0.0 1.0
  outer loop
   vertex -0.38293453979492187 0.15323179626464845 0.05
   vertex -0.82986474609375 0.1546832275390625 0.05
   vertex -0.8310654907226562 0.15323179626464845 0.05
  endloop
 endfacet
 facet normal 0.0 0.0 1.0
  outer loop
   vertex -0.38413525390625003 0.1546832275390625 0.05
   vertex -0.82986474609375 0.1546832275390625 0.05
   vertex -0.38293453979492187 0.15323179626464845 0.05
  endloop
 endfacet
 facet normal 0.0 0.0 1.0
  outer loop
   vertex -0.8324386596679688 0.1519423065185547 0.05
   vertex -0.8339625854492188 0.1508350830078125 0.05
   vertex -0.9440000000000001 0.0 0.05
  endloop
 endfacet
 facet normal 0.0 0.0 1.0
  outer loop
   vertex -0.38413525390625003 0.1546832275390625 0.05
   vertex -0.8288554077148438 0.15627369689941406 0.05
   vertex -0.82986474609375 0.1546832275390625 0.05
  endloop
 endfacet
 facet normal 0.0 0.0 1.0
  outer loop
   vertex -0.38514459228515624 0.15627369689941406 0.05
   vertex -0.8288554077148438 0.15627369689941406 0.05
   vertex -0.38413525390625003 0.1546832275390625 0.05
  endloop
 endfacet
 facet normal 0.0 0.0 1.0
  outer loop
   vertex -0.8339625854492188 0.1508350830078125 0.05
   vertex -0.83561328125 0.14992759704589845 0.05
   vertex -0.9440000000000001 0.0 0.05
  endloop
 endfacet
 facet normal 0.0 0.0 1.0
  outer loop
   vertex -0.38514459228515624 0.15627369689941406 0.05
   vertex -0.8280533447265626 0.15797813415527345 0.05
   vertex -0.8288554077148438 0.15627369689941406 0.05
  endloop
 endfacet
 facet normal 0.0 0.0 1.0
  outer loop
   vertex -0.3859466552734375 0.15797813415527345 0.05
   vertex -0.8280533447265626 0.15797813415527345 0.05
   vertex -0.38514459228515624 0.15627369689941406 0.05
  endloop
 endfacet
 facet normal 0.0 0.0 1.0
  outer loop
   vertex -0.38652874755859373 0.1597696533203125 0.05
   vertex -0.8280533447265626 0.15797813415527345 0.05
   vertex -0.3859466552734375 0.15797813415527345 0.05
  endloop
 endfacet
 facet normal 0.0 0.0 1.0
  outer loop
   vertex -0.83561328125 0.14992759704589845 0.05
   vertex -0.83736474609375 0.14923414611816407 0.05
   vertex -0.9440000000000001 0.0 0.05
  endloop
 endfacet
 facet normal 0.0 0.0 1.0
  outer loop
   vertex -0.38652874755859373 0.1597696533203125 0.05
   vertex -0.8274712524414063 0.1597696533203125 0.05
   vertex -0.8280533447265626 0.15797813415527345 0.05
  endloop
 endfacet
 facet normal 0.0 0.0 1.0
  outer loop
   vertex -0.83736474609375 0.14923414611816407 0.05
   vertex -0.8391892700195313 0.14876568603515625 0.05
   vertex -0.9440000000000001 0.0 0.05
  endloop
 endfacet
 facet normal 0.0 0.0 1.0
  outer loop
   vertex -0.38652874755859373 0.1597696533203125 0.05
   vertex -0.8271182861328125 0.1616199951171875 0.05
   vertex -0.8274712524414063 0.1597696533203125 0.05
  endloop
 endfacet
 facet normal 0.0 0.0 1.0
  outer loop
   vertex -0.3868817138671875 0.1616199951171875 0.05
   vertex -0.8271182861328125 0.1616199951171875 0.05
   vertex -0.38652874755859373 0.1597696533203125 0.05
  endloop
 endfacet
 facet normal 0.0 0.0 1.0
  outer loop
   vertex -0.8391892700195313 0.14876568603515625 0.05
   vertex -0.8410581665039063 0.14852960205078125 0.05
   vertex -0.9440000000000001 0.0 0.05
  endloop
 endfacet
 facet normal 0.0 0.0 1.0
  outer loop
   vertex -0.387 0.1635 0.05
   vertex -0.8270000000000001 0.1635 0.05
   vertex -0.3868817138671875 0.1616199951171875 0.05
  endloop
 endfacet
 facet normal 0.0 0.0 1.0
  outer loop
   vertex -0.3868817138671875 0.1616199951171875 0.05
   vertex -0.8270000000000001 0.1635 0.05
   vertex -0.8271182861328125 0.1616199951171875 0.05
  endloop
 endfacet
 facet normal 0.0 0.0 1.0
  outer loop
   vertex -0.8410581665039063 0.14852960205078125 0.05
   vertex -0.8429418334960938 0.14852960205078125 0.05
   vertex -0.9440000000000001 0.0 0.05
  endloop
 endfacet
 facet normal 0.0 0.0 1.0
  outer loop
   vertex -0.387 0.1635 0.05
   vertex -0.8271182861328125 0.16538000488281251 0.05
   vertex -0.8270000000000001 0.1635 0.05
  endloop
 endfacet
 facet normal 0.0 0.0 1.0
  outer loop
   vertex -0.3868817138671875 0.16538000488281251 0.05
   vertex -0.8271182861328125 0.16538000488281251 0.05
   vertex -0.387 0.1635 0.05
  endloop
 endfacet
 facet normal 0.0 0.0 1.0
  outer loop
   vertex -0.8429418334960938 0.14852960205078125 0.05
   vertex -0.8448107299804688 0.14876568603515625 0.05
   vertex -0.9440000000000001 0.0 0.05
  endloop
 endfacet
 facet normal 0.0 0.0 1.0
  outer loop
   vertex -0.38652874755859373 0.1672303466796875 0.05
   vertex -0.8274712524414063 0.1672303466796875 0.05
   vertex -0.3868817138671875 0.16538000488281251 0.05
  endloop
 endfacet
 facet normal 0.0 0.0 1.0
  outer loop
   vertex -0.3859466552734375 0.16902186584472656 0.05
   vertex -0.8274712524414063 0.1672303466796875 0.05
   vertex -0.38652874755859373 0.1672303466796875 0.05
  endloop
 endfacet
 facet normal 0.0 0.0 1.0
  outer loop
   vertex -0.3868817138671875 0.16538000488281251 0.05
   vertex -0.8274712524414063 0.1672303466796875 0.05
   vertex -0.8271182861328125 0.16538000488281251 0.05
  endloop
 endfacet
 facet normal 0.0 0.0 1.0
  outer loop
   vertex -0.8448107299804688 0.14876568603515625 0.05
   vertex -0.84663525390625 0.14923414611816407 0.05
   vertex -0.9440000000000001 0.0 0.05
  endloop
 endfacet
 facet normal 0.0 0.0 1.0
  outer loop
   vertex -0.3859466552734375 0.16902186584472656 0.05
   vertex -0.8280533447265626 0.16902186584472656 0.05
   vertex -0.8274712524414063 0.1672303466796875 0.05
  endloop
 endfacet
 facet normal 0.0 0.0 1.0
  outer loop
   vertex -0.84663525390625 0.14923414611816407 0.05
   vertex -0.84838671875 0.14992759704589845 0.05
   vertex -0.9440000000000001 0.0 0.05
  endloop
 endfacet
 facet normal 0.0 0.0 1.0
  outer loop
   vertex -0.38514459228515624 0.17072630310058595 0.05
   vertex -0.8288554077148438 0.17072630310058595 0.05
   vertex -0.3859466552734375 0.16902186584472656 0.05
  endloop
 endfacet
 facet normal 0.0 0.0 1.0
  outer loop
   vertex -0.3859466552734375 0.16902186584472656 0.05
   vertex -0.8288554077148438 0.17072630310058595 0.05
   vertex -0.8280533447265626 0.16902186584472656 0.05
  endloop
 endfacet
 facet normal 0.0 0.0 1.0
  outer loop
   vertex -0.84838671875 0.14992759704589845 0.05
   vertex -0.8500374145507813 0.1508350830078125 0.05
   vertex -0.9440000000000001 0.0 0.05
  endloop
 endfacet
 facet normal 0.0 0.0 1.0
  outer loop
   vertex -0.38413525390625003 0.17231677246093752 0.05
   vertex -0.82986474609375 0.17231677246093752 0.05
   vertex -0.38514459228515624 0.17072630310058595 0.05
  endloop
 endfacet
 facet normal 0.0 0.0 1.0
  outer loop
   vertex -0.38514459228515624 0.17072630310058595 0.05
   vertex -0.82986474609375 0.17231677246093752 0.05
   vertex -0.8288554077148438 0.17072630310058595 0.05
  endloop
 endfacet
 facet normal 0.0 0.0 1.0
  outer loop
   vertex -0.8500374145507813 0.1508350830078125 0.05
   vertex -0.8515613403320312 0.1519423065185547 0.05
   vertex -0.9440000000000001 0.0 0.05
  endloop
 endfacet
 facet normal 0.0 0.0 1.0
  outer loop
   vertex -0.38293453979492187 0.17376820373535157 0.05
   vertex -0.8310654907226562 0.17376820373535157 0.05
   vertex -0.38413525390625003 0.17231677246093752 0.05
  endloop
 endfacet
 facet normal 0.0 0.0 1.0
  outer loop
   vertex -0.3815613708496094 0.17505769348144531 0.05
   vertex -0.8310654907226562 0.17376820373535157 0.05
   vertex -0.38293453979492187 0.17376820373535157 0.05
  endloop
 endfacet
 facet normal 0.0 0.0 1.0
  outer loop
   vertex -0.38413525390625003 0.17231677246093752 0.05
   vertex -0.8310654907226562 0.17376820373535157 0.05
   vertex -0.82986474609375 0.17231677246093752 0.05
  endloop
 endfacet
 facet normal 0.0 0.0 1.0
  outer loop
   vertex -0.8515613403320312 0.1519423065185547 0.05
   vertex -0.8529345092773438 0.15323179626464845 0.05
   vertex -0.9440000000000001 0.0 0.05
  endloop
 endfacet
 facet normal 0.0 0.0 1.0
  outer loop
   vertex -0.3815613708496094 0.17505769348144531 0.05
   vertex -0.8324386596679688 0.17505769348144531 0.05
   vertex -0.8310654907226562 0.17376820373535157 0.05
  endloop
 endfacet
 facet normal 0.0 0.0 1.0
  outer loop
   vertex -0.8529345092773438 0.15323179626464845 0.05
   vertex -0.85413525390625 0.1546832275390625 0.05
   vertex -0.9440000000000001 0.0 0.05
  endloop
 endfacet
 facet normal 0.0 0.0 1.0
  outer loop
   vertex -0.38003741455078127 0.1761649169921875 0.05
   vertex -0.8339625854492188 0.1761649169921875 0.05
   vertex -0.3815613708496094 0.17505769348144531 0.05
  endloop
 endfacet
 facet normal 0.0 0.0 1.0
  outer loop
   vertex -0.3815613708496094 0.17505769348144531 0.05
   vertex -0.8339625854492188 0.1761649169921875 0.05
   vertex -0.8324386596679688 0.17505769348144531 0.05
  endloop
 endfacet
 facet normal 0.0 0.0 1.0
  outer loop
   vertex -0.3783866882324219 0.17707240295410157 0.05
   vertex -0.83561328125 0.17707240295410157 0.05
   vertex -0.38003741455078127 0.1761649169921875 0.05
  endloop
 endfacet
 facet normal 0.0 0.0 1.0
  outer loop
   vertex -0.38003741455078127 0.1761649169921875 0.05
   vertex -0.83561328125 0.17707240295410157 0.05
   vertex -0.8339625854492188 0.1761649169921875 0.05
  endloop
 endfacet
 facet normal 0.0 0.0 1.0
  outer loop
   vertex -0.85413525390625 0.1546832275390625 0.05
   vertex -0.9440000000000001 0.1945 0.05
   vertex -0.9440000000000001 0.0 0.05
  endloop
 endfacet
 facet normal 0.0 0.0 1.0
  outer loop
   vertex -0.8551445922851563 0.15627369689941406 0.05
   vertex -0.9440000000000001 0.1945 0.05
   vertex -0.85413525390625 0.1546832275390625 0.05
  endloop
 endfacet
 facet normal 0.0 0.0 1.0
  outer loop
   vertex -0.8559466552734375 0.15797813415527345 0.05
   vertex -0.9440000000000001 0.1945 0.05
   vertex -0.8551445922851563 0.15627369689941406 0.05
  endloop
 endfacet
 facet normal 0.0 0.0 1.0
  outer loop
   vertex -0.8565287475585938 0.1597696533203125 0.05
   vertex -0.9440000000000001 0.1945 0.05
   vertex -0.8559466552734375 0.15797813415527345 0.05
  endloop
 endfacet
 facet normal 0.0 0.0 1.0
  outer loop
   vertex -0.8568817138671875 0.1616199951171875 0.05
   vertex -0.9440000000000001 0.1945 0.05
   vertex -0.8565287475585938 0.1597696533203125 0.05
  endloop
 endfacet
 facet normal 0.0 0.0 1.0
  outer loop
   vertex -0.857 0.1635 0.05
   vertex -0.9440000000000001 0.1945 0.05
   vertex -0.8568817138671875 0.1616199951171875 0.05
  endloop
 endfacet
 facet normal 0.0 0.0 1.0
  outer loop
   vertex -0.8568817138671875 0.16538000488281251 0.05
   vertex -0.9440000000000001 0.1945 0.05
   vertex -0.857 0.1635 0.05
  endloop
 endfacet
 facet normal 0.0 0.0 1.0
  outer loop
   vertex -0.8565287475585938 0.1672303466796875 0.05
   vertex -0.9440000000000001 0.1945 0.05
   vertex -0.8568817138671875 0.16538000488281251 0.05
  endloop
 endfacet
 facet normal 0.0 0.0 1.0
  outer loop
   vertex -0.8559466552734375 0.16902186584472656 0.05
   vertex -0.9440000000000001 0.1945 0.05
   vertex -0.8565287475585938 0.1672303466796875 0.05
  endloop
 endfacet
 facet normal 0.0 0.0 1.0
  outer loop
   vertex -0.8551445922851563 0.17072630310058595 0.05
   vertex -0.9440000000000001 0.1945 0.05
   vertex -0.8559466552734375 0.16902186584472656 0.05
  endloop
 endfacet
 facet normal 0.0 0.0 1.0
  outer loop
   vertex -0.85413525390625 0.17231677246093752 0.05
   vertex -0.9440000000000001 0.1945 0.05
   vertex -0.8551445922851563 0.17072630310058595 0.05
  endloop
 endfacet
 facet normal 0.0 0.0 1.0
  outer loop
   vertex -0.8529345092773438 0.17376820373535157 0.05
   vertex -0.9440000000000001 0.1945 0.05
   vertex -0.85413525390625 0.17231677246093752 0.05
  endloop
 endfacet
 facet normal 0.0 0.0 1.0
  outer loop
   vertex -0.8515613403320312 0.17505769348144531 0.05
   vertex -0.9440000000000001 0.1945 0.05
   vertex -0.8529345092773438 0.17376820373535157 0.05
  endloop
 endfacet
 facet normal 0.0 0.0 1.0
  outer loop
   vertex -0.8500374145507813 0.1761649169921875 0.05
   vertex -0.9440000000000001 0.1945 0.05
   vertex -0.8515613403320312 0.17505769348144531 0.05
  endloop
 endfacet
 facet normal 0.0 0.0 1.0
  outer loop
   vertex -0.84838671875 0.17707240295410157 0.05
   vertex -0.9440000000000001 0.1945 0.05
   vertex -0.8500374145507813 0.1761649169921875 0.05
  endloop
 endfacet
 facet normal 0.0 0.0 1.0
  outer loop
   vertex -0.84663525390625 0.17776585388183594 0.05
   vertex -0.9440000000000001 0.1945 0.05
   vertex -0.84838671875 0.17707240295410157 0.05
  endloop
 endfacet
 facet normal 0.0 0.0 1.0
  outer loop
   vertex -0.8448107299804688 0.17823431396484377 0.05
   vertex -0.9440000000000001 0.1945 0.05
   vertex -0.84663525390625 0.17776585388183594 0.05
  endloop
 endfacet
 facet normal 0.0 0.0 1.0
  outer loop
   vertex -0.8429418334960938 0.17847039794921876 0.05
   vertex -0.9440000000000001 0.1945 0.05
   vertex -0.8448107299804688 0.17823431396484377 0.05
  endloop
 endfacet
 facet normal 0.0 0.0 1.0
  outer loop
   vertex -0.8410581665039063 0.17847039794921876 0.05
   vertex -0.9440000000000001 0.1945 0.05
   vertex -0.8429418334960938 0.17847039794921876 0.05
  endloop
 endfacet
 facet normal 0.0 0.0 1.0
  outer loop
   vertex 0.0 0.1945 0.05
   vertex -0.9440000000000001 0.1945 0.05
   vertex -0.8410581665039063 0.17847039794921876 0.05
  endloop
 endfacet
 facet normal 0.0 0.0 1.0
  outer loop
   vertex 0.0 0.1945 0.05
   vertex -0.8410581665039063 0.17847039794921876 0.05
   vertex -0.8391892700195313 0.17823431396484377 0.05
  endloop
 endfacet
 facet normal 0.0 0.0 1.0
  outer loop
   vertex 0.0 0.1945 0.05
   vertex -0.8391892700195313 0.17823431396484377 0.05
   vertex -0.83736474609375 0.17776585388183594 0.05
  endloop
 endfacet
 facet normal 0.0 0.0 1.0
  outer loop
   vertex 0.0 0.1945 0.05
   vertex -0.83736474609375 0.17776585388183594 0.05
   vertex -0.83561328125 0.17707240295410157 0.05
  endloop
 endfacet
 facet normal 0.0 0.0 1.0
  outer loop
   vertex 0.0 0.1945 0.05
   vertex -0.83561328125 0.17707240295410157 0.05
   vertex -0.3729418640136719 0.17847039794921876 0.05
  endloop
 endfacet
 facet normal 0.0 0.0 1.0
  outer loop
   vertex 0.0 0.1945 0.05
   vertex -0.3729418640136719 0.17847039794921876 0.05
   vertex -0.37105813598632814 0.17847039794921876 0.05
  endloop
 endfacet
 facet normal 0.0 0.0 1.0
  outer loop
   vertex 0.0 0.1945 0.05
   vertex -0.37105813598632814 0.17847039794921876 0.05
   vertex -0.3691892700195313 0.17823431396484377 0.05
  endloop
 endfacet
 facet normal 0.0 0.0 1.0
  outer loop
   vertex 0.0 0.1945 0.05
   vertex -0.3691892700195313 0.17823431396484377 0.05
   vertex -0.36736474609375 0.17776585388183594 0.05
  endloop
 endfacet
 facet normal 0.0 0.0 1.0
  outer loop
   vertex -0.3729418640136719 0.17847039794921876 0.05
   vertex -0.83561328125 0.17707240295410157 0.05
   vertex -0.37481072998046877 0.17823431396484377 0.05
  endloop
 endfacet
 facet normal 0.0 0.0 1.0
  outer loop
   vertex -0.37481072998046877 0.17823431396484377 0.05
   vertex -0.83561328125 0.17707240295410157 0.05
   vertex -0.37663525390625 0.17776585388183594 0.05
  endloop
 endfacet
 facet normal 0.0 0.0 1.0
  outer loop
   vertex -0.37663525390625 0.17776585388183594 0.05
   vertex -0.83561328125 0.17707240295410157 0.05
   vertex -0.3783866882324219 0.17707240295410157 0.05
  endloop
 endfacet
endsolid MeshRefinement001
