solid MeshRefinement010
 facet normal -1.0 0.0 0.0
  outer loop
   vertex 0.0 0.0 0.139
   vertex 0.0 0.0 0.149
   vertex 0.0 0.01 0.139
  endloop
 endfacet
 facet normal -1.0 0.0 0.0
  outer loop
   vertex 0.0 0.01 0.139
   vertex 0.0 0.0 0.149
   vertex 0.0 0.01 0.149
  endloop
 endfacet
 facet normal 1.0 0.0 0.0
  outer loop
   vertex 0.25 0.0 0.149
   vertex 0.25 0.0 0.139
   vertex 0.25 0.01 0.139
  endloop
 endfacet
 facet normal 1.0 -0.0 0.0
  outer loop
   vertex 0.25 0.0 0.149
   vertex 0.25 0.01 0.139
   vertex 0.25 0.01 0.149
  endloop
 endfacet
 facet normal 0.0 -1.0 0.0
  outer loop
   vertex 0.25 0.0 0.139
   vertex 0.25 0.0 0.149
   vertex 0.0 0.0 0.139
  endloop
 endfacet
 facet normal 0.0 -1.0 0.0
  outer loop
   vertex 0.0 0.0 0.139
   vertex 0.25 0.0 0.149
   vertex 0.0 0.0 0.149
  endloop
 endfacet
 facet normal 0.0 1.0 0.0
  outer loop
   vertex 0.25 0.01 0.149
   vertex 0.25 0.01 0.139
   vertex 0.0 0.01 0.139
  endloop
 endfacet
 facet normal 0.0 1.0 0.0
  outer loop
   vertex 0.25 0.01 0.149
   vertex 0.0 0.01 0.139
   vertex 0.0 0.01 0.149
  endloop
 endfacet
 facet normal 0.0 0.0 -1.0
  outer loop
   vertex 0.0 0.01 0.139
   vertex 0.25 0.01 0.139
   vertex 0.0 0.0 0.139
  endloop
 endfacet
 facet normal 0.0 0.0 -1.0
  outer loop
   vertex 0.0 0.0 0.139
   vertex 0.25 0.01 0.139
   vertex 0.25 0.0 0.139
  endloop
 endfacet
 facet normal 0.0 0.0 1.0
  outer loop
   vertex 0.25 0.01 0.149
   vertex 0.0 0.01 0.149
   vertex 0.0 0.0 0.149
  endloop
 endfacet
 facet normal 0.0 0.0 1.0
  outer loop
   vertex 0.25 0.01 0.149
   vertex 0.0 0.0 0.149
   vertex 0.25 0.0 0.149
  endloop
 endfacet
 facet normal -1.0 0.0 0.0
  outer loop
   vertex 1.0 0.0 0.0
   vertex 1.0 0.0 0.01
   vertex 1.0 0.01 0.0
  endloop
 endfacet
 facet normal -1.0 0.0 0.0
  outer loop
   vertex 1.0 0.01 0.0
   vertex 1.0 0.0 0.01
   vertex 1.0 0.01 0.01
  endloop
 endfacet
 facet normal 1.0 0.0 0.0
  outer loop
   vertex 6.0 0.0 0.01
   vertex 6.0 0.0 0.0
   vertex 6.0 0.01 0.0
  endloop
 endfacet
 facet normal 1.0 -0.0 0.0
  outer loop
   vertex 6.0 0.0 0.01
   vertex 6.0 0.01 0.0
   vertex 6.0 0.01 0.01
  endloop
 endfacet
 facet normal 0.0 -1.0 0.0
  outer loop
   vertex 6.0 0.0 0.0
   vertex 6.0 0.0 0.01
   vertex 1.0 0.0 0.0
  endloop
 endfacet
 facet normal 0.0 -1.0 0.0
  outer loop
   vertex 1.0 0.0 0.0
   vertex 6.0 0.0 0.01
   vertex 1.0 0.0 0.01
  endloop
 endfacet
 facet normal 0.0 1.0 0.0
  outer loop
   vertex 6.0 0.01 0.01
   vertex 6.0 0.01 0.0
   vertex 1.0 0.01 0.0
  endloop
 endfacet
 facet normal 0.0 1.0 0.0
  outer loop
   vertex 6.0 0.01 0.01
   vertex 1.0 0.01 0.0
   vertex 1.0 0.01 0.01
  endloop
 endfacet
 facet normal 0.0 0.0 -1.0
  outer loop
   vertex 1.0 0.01 0.0
   vertex 6.0 0.01 0.0
   vertex 1.0 0.0 0.0
  endloop
 endfacet
 facet normal 0.0 0.0 -1.0
  outer loop
   vertex 1.0 0.0 0.0
   vertex 6.0 0.01 0.0
   vertex 6.0 0.0 0.0
  endloop
 endfacet
 facet normal 0.0 0.0 1.0
  outer loop
   vertex 6.0 0.01 0.01
   vertex 1.0 0.01 0.01
   vertex 1.0 0.0 0.01
  endloop
 endfacet
 facet normal 0.0 0.0 1.0
  outer loop
   vertex 6.0 0.01 0.01
   vertex 1.0 0.0 0.01
   vertex 6.0 0.0 0.01
  endloop
 endfacet
endsolid MeshRefinement010
