solid MeshRefinement
 facet normal -0.9980264902114868 -0.06279382109642029 0.0
  outer loop
   vertex -0.8270000000000001 0.1635 0.0
   vertex -0.8270000000000001 0.1635 0.05
   vertex -0.8271182861328125 0.16538000488281251 0.05
  endloop
 endfacet
 facet normal -0.9822877049446106 -0.18737861514091492 0.0
  outer loop
   vertex -0.8271182861328125 0.16538000488281251 3.6713599554146634e-17
   vertex -0.8271182861328125 0.16538000488281251 0.05
   vertex -0.8274712524414063 0.1672303466796875 0.05
  endloop
 endfacet
 facet normal -0.9980264902114868 -0.06279382109642029 0.0
  outer loop
   vertex -0.8271182861328125 0.16538000488281251 3.6713599554146634e-17
   vertex -0.8270000000000001 0.1635 0.0
   vertex -0.8271182861328125 0.16538000488281251 0.05
  endloop
 endfacet
 facet normal -0.9822877049446106 -0.18737861514091492 0.0
  outer loop
   vertex -0.8274712524414063 0.1672303466796875 3.712067681233347e-17
   vertex -0.8271182861328125 0.16538000488281251 3.6713599554146634e-17
   vertex -0.8274712524414063 0.1672303466796875 0.05
  endloop
 endfacet
 facet normal -0.9510577321052551 -0.30901336669921875 0.0
  outer loop
   vertex -0.8274712524414063 0.1672303466796875 3.712067681233347e-17
   vertex -0.8274712524414063 0.1672303466796875 0.05
   vertex -0.8280533447265626 0.16902186584472656 0.05
  endloop
 endfacet
 facet normal -0.9510577321052551 -0.30901336669921875 0.0
  outer loop
   vertex -0.8280533447265626 0.16902186584472656 3.751481140708626e-17
   vertex -0.8274712524414063 0.1672303466796875 3.712067681233347e-17
   vertex -0.8280533447265626 0.16902186584472656 0.05
  endloop
 endfacet
 facet normal -0.904823899269104 -0.4257861375808716 0.0
  outer loop
   vertex -0.8280533447265626 0.16902186584472656 3.751481140708626e-17
   vertex -0.8280533447265626 0.16902186584472656 0.05
   vertex -0.8288554077148438 0.17072630310058595 0.05
  endloop
 endfacet
 facet normal -0.904823899269104 -0.4257861375808716 0.0
  outer loop
   vertex -0.8288554077148438 0.17072630310058595 3.7889786116572165e-17
   vertex -0.8280533447265626 0.16902186584472656 3.751481140708626e-17
   vertex -0.8288554077148438 0.17072630310058595 0.05
  endloop
 endfacet
 facet normal -0.8443289399147034 -0.535825252532959 0.0
  outer loop
   vertex -0.8288554077148438 0.17072630310058595 3.7889786116572165e-17
   vertex -0.8288554077148438 0.17072630310058595 0.05
   vertex -0.82986474609375 0.17231677246093752 0.05
  endloop
 endfacet
 facet normal -0.8443289399147034 -0.535825252532959 0.0
  outer loop
   vertex -0.82986474609375 0.17231677246093752 3.8239692038951125e-17
   vertex -0.8288554077148438 0.17072630310058595 3.7889786116572165e-17
   vertex -0.82986474609375 0.17231677246093752 0.05
  endloop
 endfacet
 facet normal -0.7705090045928955 -0.6374291181564331 0.0
  outer loop
   vertex -0.82986474609375 0.17231677246093752 3.8239692038951125e-17
   vertex -0.82986474609375 0.17231677246093752 0.05
   vertex -0.8310654907226562 0.17376820373535157 0.05
  endloop
 endfacet
 facet normal -0.7705090045928955 -0.6374291181564331 0.0
  outer loop
   vertex -0.8310654907226562 0.17376820373535157 3.8559006519407054e-17
   vertex -0.82986474609375 0.17231677246093752 3.8239692038951125e-17
   vertex -0.8310654907226562 0.17376820373535157 0.05
  endloop
 endfacet
 facet normal -0.6845466494560242 -0.7289690971374512 0.0
  outer loop
   vertex -0.8310654907226562 0.17376820373535157 3.8559006519407054e-17
   vertex -0.8310654907226562 0.17376820373535157 0.05
   vertex -0.8324386596679688 0.17505769348144531 0.05
  endloop
 endfacet
 facet normal -0.6845466494560242 -0.7289690971374512 0.0
  outer loop
   vertex -0.8324386596679688 0.17505769348144531 3.884269479410146e-17
   vertex -0.8310654907226562 0.17376820373535157 3.8559006519407054e-17
   vertex -0.8324386596679688 0.17505769348144531 0.05
  endloop
 endfacet
 facet normal -0.5877944827079773 -0.8090102672576904 0.0
  outer loop
   vertex -0.8324386596679688 0.17505769348144531 3.884269479410146e-17
   vertex -0.8324386596679688 0.17505769348144531 0.05
   vertex -0.8339625854492188 0.1761649169921875 0.05
  endloop
 endfacet
 facet normal -0.5877944827079773 -0.8090102672576904 0.0
  outer loop
   vertex -0.8339625854492188 0.1761649169921875 3.9086281140941066e-17
   vertex -0.8324386596679688 0.17505769348144531 3.884269479410146e-17
   vertex -0.8339625854492188 0.1761649169921875 0.05
  endloop
 endfacet
 facet normal -0.4817570447921753 -0.8763048648834229 0.0
  outer loop
   vertex -0.8339625854492188 0.1761649169921875 3.9086281140941066e-17
   vertex -0.8339625854492188 0.1761649169921875 0.05
   vertex -0.83561328125 0.17707240295410157 0.05
  endloop
 endfacet
 facet normal -0.4817570447921753 -0.8763048648834229 0.0
  outer loop
   vertex -0.83561328125 0.17707240295410157 3.928593019474069e-17
   vertex -0.8339625854492188 0.1761649169921875 3.9086281140941066e-17
   vertex -0.83561328125 0.17707240295410157 0.05
  endloop
 endfacet
 facet normal -0.3681231439113617 -0.9297770857810974 0.0
  outer loop
   vertex -0.83561328125 0.17707240295410157 3.928593019474069e-17
   vertex -0.83561328125 0.17707240295410157 0.05
   vertex -0.83736474609375 0.17776585388183594 0.05
  endloop
 endfacet
 facet normal -0.3681231439113617 -0.9297770857810974 0.0
  outer loop
   vertex -0.83736474609375 0.17776585388183594 3.943848760480477e-17
   vertex -0.83561328125 0.17707240295410157 3.928593019474069e-17
   vertex -0.83736474609375 0.17776585388183594 0.05
  endloop
 endfacet
 facet normal -0.2486908733844757 -0.9685829281806946 0.0
  outer loop
   vertex -0.83736474609375 0.17776585388183594 3.943848760480477e-17
   vertex -0.83736474609375 0.17776585388183594 0.05
   vertex -0.8391892700195313 0.17823431396484377 0.05
  endloop
 endfacet
 facet normal -0.2486908733844757 -0.9685829281806946 0.0
  outer loop
   vertex -0.8391892700195313 0.17823431396484377 3.9541547797563094e-17
   vertex -0.83736474609375 0.17776585388183594 3.943848760480477e-17
   vertex -0.8391892700195313 0.17823431396484377 0.05
  endloop
 endfacet
 facet normal -0.12532667815685272 -0.9921154975891113 0.0
  outer loop
   vertex -0.8391892700195313 0.17823431396484377 3.9541547797563094e-17
   vertex -0.8391892700195313 0.17823431396484377 0.05
   vertex -0.8410581665039063 0.17847039794921876 0.05
  endloop
 endfacet
 facet normal -0.12532667815685272 -0.9921154975891113 0.0
  outer loop
   vertex -0.8410581665039063 0.17847039794921876 3.959348785788873e-17
   vertex -0.8391892700195313 0.17823431396484377 3.9541547797563094e-17
   vertex -0.8410581665039063 0.17847039794921876 0.05
  endloop
 endfacet
 facet normal 0.0 -1.0 0.0
  outer loop
   vertex -0.8410581665039063 0.17847039794921876 3.959348785788873e-17
   vertex -0.8410581665039063 0.17847039794921876 0.05
   vertex -0.8429418334960938 0.17847039794921876 0.05
  endloop
 endfacet
 facet normal 0.0 -1.0 0.0
  outer loop
   vertex -0.8429418334960938 0.17847039794921876 3.959348785788873e-17
   vertex -0.8410581665039063 0.17847039794921876 3.959348785788873e-17
   vertex -0.8429418334960938 0.17847039794921876 0.05
  endloop
 endfacet
 facet normal 0.12532667815685272 -0.9921154975891113 0.0
  outer loop
   vertex -0.8448107299804688 0.17823431396484377 3.9541547797563094e-17
   vertex -0.8429418334960938 0.17847039794921876 3.959348785788873e-17
   vertex -0.8429418334960938 0.17847039794921876 0.05
  endloop
 endfacet
 facet normal 0.2486908733844757 -0.9685829281806946 0.0
  outer loop
   vertex -0.8448107299804688 0.17823431396484377 3.9541547797563094e-17
   vertex -0.8448107299804688 0.17823431396484377 0.05
   vertex -0.84663525390625 0.17776585388183594 0.05
  endloop
 endfacet
 facet normal 0.12532667815685272 -0.9921154975891113 0.0
  outer loop
   vertex -0.8448107299804688 0.17823431396484377 3.9541547797563094e-17
   vertex -0.8429418334960938 0.17847039794921876 0.05
   vertex -0.8448107299804688 0.17823431396484377 0.05
  endloop
 endfacet
 facet normal 0.2486908733844757 -0.9685829281806946 0.0
  outer loop
   vertex -0.84663525390625 0.17776585388183594 3.943848760480477e-17
   vertex -0.8448107299804688 0.17823431396484377 3.9541547797563094e-17
   vertex -0.84663525390625 0.17776585388183594 0.05
  endloop
 endfacet
 facet normal 0.3681231439113617 -0.9297770857810974 0.0
  outer loop
   vertex -0.84663525390625 0.17776585388183594 3.943848760480477e-17
   vertex -0.84663525390625 0.17776585388183594 0.05
   vertex -0.84838671875 0.17707240295410157 0.05
  endloop
 endfacet
 facet normal 0.3681231439113617 -0.9297770857810974 0.0
  outer loop
   vertex -0.84838671875 0.17707240295410157 3.928593019474069e-17
   vertex -0.84663525390625 0.17776585388183594 3.943848760480477e-17
   vertex -0.84838671875 0.17707240295410157 0.05
  endloop
 endfacet
 facet normal 0.4817570447921753 -0.8763048648834229 0.0
  outer loop
   vertex -0.84838671875 0.17707240295410157 3.928593019474069e-17
   vertex -0.84838671875 0.17707240295410157 0.05
   vertex -0.8500374145507813 0.1761649169921875 0.05
  endloop
 endfacet
 facet normal 0.4817570447921753 -0.8763048648834229 0.0
  outer loop
   vertex -0.8500374145507813 0.1761649169921875 3.9086281140941066e-17
   vertex -0.84838671875 0.17707240295410157 3.928593019474069e-17
   vertex -0.8500374145507813 0.1761649169921875 0.05
  endloop
 endfacet
 facet normal 0.5877944827079773 -0.8090102672576904 0.0
  outer loop
   vertex -0.8500374145507813 0.1761649169921875 3.9086281140941066e-17
   vertex -0.8500374145507813 0.1761649169921875 0.05
   vertex -0.8515613403320312 0.17505769348144531 0.05
  endloop
 endfacet
 facet normal 0.5877944827079773 -0.8090102672576904 0.0
  outer loop
   vertex -0.8515613403320312 0.17505769348144531 3.884269479410146e-17
   vertex -0.8500374145507813 0.1761649169921875 3.9086281140941066e-17
   vertex -0.8515613403320312 0.17505769348144531 0.05
  endloop
 endfacet
 facet normal 0.6845466494560242 -0.7289690971374512 0.0
  outer loop
   vertex -0.8515613403320312 0.17505769348144531 3.884269479410146e-17
   vertex -0.8515613403320312 0.17505769348144531 0.05
   vertex -0.8529345092773438 0.17376820373535157 0.05
  endloop
 endfacet
 facet normal 0.6845466494560242 -0.7289690971374512 0.0
  outer loop
   vertex -0.8529345092773438 0.17376820373535157 3.8559006519407054e-17
   vertex -0.8515613403320312 0.17505769348144531 3.884269479410146e-17
   vertex -0.8529345092773438 0.17376820373535157 0.05
  endloop
 endfacet
 facet normal 0.8443289399147034 -0.535825252532959 0.0
  outer loop
   vertex -0.85413525390625 0.17231677246093752 3.8239692038951125e-17
   vertex -0.85413525390625 0.17231677246093752 0.05
   vertex -0.8551445922851563 0.17072630310058595 0.05
  endloop
 endfacet
 facet normal 0.7705090045928955 -0.6374291181564331 0.0
  outer loop
   vertex -0.85413525390625 0.17231677246093752 3.8239692038951125e-17
   vertex -0.8529345092773438 0.17376820373535157 0.05
   vertex -0.85413525390625 0.17231677246093752 0.05
  endloop
 endfacet
 facet normal 0.7705090045928955 -0.6374291181564331 0.0
  outer loop
   vertex -0.85413525390625 0.17231677246093752 3.8239692038951125e-17
   vertex -0.8529345092773438 0.17376820373535157 3.8559006519407054e-17
   vertex -0.8529345092773438 0.17376820373535157 0.05
  endloop
 endfacet
 facet normal 0.8443289399147034 -0.535825252532959 0.0
  outer loop
   vertex -0.8551445922851563 0.17072630310058595 3.7889786116572165e-17
   vertex -0.85413525390625 0.17231677246093752 3.8239692038951125e-17
   vertex -0.8551445922851563 0.17072630310058595 0.05
  endloop
 endfacet
 facet normal 0.9510577321052551 -0.30901336669921875 0.0
  outer loop
   vertex -0.8559466552734375 0.16902186584472656 3.751481140708626e-17
   vertex -0.8559466552734375 0.16902186584472656 0.05
   vertex -0.8565287475585938 0.1672303466796875 0.05
  endloop
 endfacet
 facet normal 0.904823899269104 -0.4257861375808716 0.0
  outer loop
   vertex -0.8559466552734375 0.16902186584472656 3.751481140708626e-17
   vertex -0.8551445922851563 0.17072630310058595 0.05
   vertex -0.8559466552734375 0.16902186584472656 0.05
  endloop
 endfacet
 facet normal 0.904823899269104 -0.4257861375808716 0.0
  outer loop
   vertex -0.8559466552734375 0.16902186584472656 3.751481140708626e-17
   vertex -0.8551445922851563 0.17072630310058595 3.7889786116572165e-17
   vertex -0.8551445922851563 0.17072630310058595 0.05
  endloop
 endfacet
 facet normal 0.9510577321052551 -0.30901336669921875 0.0
  outer loop
   vertex -0.8565287475585938 0.1672303466796875 3.712067681233347e-17
   vertex -0.8559466552734375 0.16902186584472656 3.751481140708626e-17
   vertex -0.8565287475585938 0.1672303466796875 0.05
  endloop
 endfacet
 facet normal 0.9822877049446106 -0.18737861514091492 0.0
  outer loop
   vertex -0.8568817138671875 0.16538000488281251 3.6713599554146634e-17
   vertex -0.8565287475585938 0.1672303466796875 3.712067681233347e-17
   vertex -0.8565287475585938 0.1672303466796875 0.05
  endloop
 endfacet
 facet normal 0.9980264902114868 -0.06279382109642029 0.0
  outer loop
   vertex -0.8568817138671875 0.16538000488281251 3.6713599554146634e-17
   vertex -0.8568817138671875 0.16538000488281251 0.05
   vertex -0.857 0.1635 0.05
  endloop
 endfacet
 facet normal 0.9822877049446106 -0.18737861514091492 0.0
  outer loop
   vertex -0.8568817138671875 0.16538000488281251 3.6713599554146634e-17
   vertex -0.8565287475585938 0.1672303466796875 0.05
   vertex -0.8568817138671875 0.16538000488281251 0.05
  endloop
 endfacet
 facet normal 0.9980264902114868 -0.06279382109642029 0.0
  outer loop
   vertex -0.857 0.1635 3.6300000142265936e-17
   vertex -0.8568817138671875 0.16538000488281251 3.6713599554146634e-17
   vertex -0.857 0.1635 0.05
  endloop
 endfacet
 facet normal 0.9980264902114868 0.06279382109642029 0.0
  outer loop
   vertex -0.8568817138671875 0.1616199951171875 3.588640073038524e-17
   vertex -0.857 0.1635 3.6300000142265936e-17
   vertex -0.857 0.1635 0.05
  endloop
 endfacet
 facet normal 0.9980264902114868 0.06279382109642029 -0.0
  outer loop
   vertex -0.8568817138671875 0.1616199951171875 3.588640073038524e-17
   vertex -0.857 0.1635 0.05
   vertex -0.8568817138671875 0.1616199951171875 0.05
  endloop
 endfacet
 facet normal 0.9822877049446106 0.18737861514091492 0.0
  outer loop
   vertex -0.8565287475585938 0.1597696533203125 3.54793234721984e-17
   vertex -0.8568817138671875 0.1616199951171875 3.588640073038524e-17
   vertex -0.8568817138671875 0.1616199951171875 0.05
  endloop
 endfacet
 facet normal 0.9822877049446106 0.18737861514091492 -0.0
  outer loop
   vertex -0.8565287475585938 0.1597696533203125 3.54793234721984e-17
   vertex -0.8568817138671875 0.1616199951171875 0.05
   vertex -0.8565287475585938 0.1597696533203125 0.05
  endloop
 endfacet
 facet normal 0.9510577321052551 0.30901336669921875 0.0
  outer loop
   vertex -0.8559466552734375 0.15797813415527345 3.5085188877445605e-17
   vertex -0.8565287475585938 0.1597696533203125 3.54793234721984e-17
   vertex -0.8565287475585938 0.1597696533203125 0.05
  endloop
 endfacet
 facet normal 0.9510577321052551 0.30901336669921875 -0.0
  outer loop
   vertex -0.8559466552734375 0.15797813415527345 3.5085188877445605e-17
   vertex -0.8565287475585938 0.1597696533203125 0.05
   vertex -0.8559466552734375 0.15797813415527345 0.05
  endloop
 endfacet
 facet normal 0.904823899269104 0.4257861375808716 0.0
  outer loop
   vertex -0.8551445922851563 0.15627369689941406 3.471021416795971e-17
   vertex -0.8559466552734375 0.15797813415527345 3.5085188877445605e-17
   vertex -0.8559466552734375 0.15797813415527345 0.05
  endloop
 endfacet
 facet normal 0.8443289399147034 0.535825252532959 -0.0
  outer loop
   vertex -0.8551445922851563 0.15627369689941406 3.471021416795971e-17
   vertex -0.8551445922851563 0.15627369689941406 0.05
   vertex -0.85413525390625 0.1546832275390625 0.05
  endloop
 endfacet
 facet normal 0.904823899269104 0.4257861375808716 -0.0
  outer loop
   vertex -0.8551445922851563 0.15627369689941406 3.471021416795971e-17
   vertex -0.8559466552734375 0.15797813415527345 0.05
   vertex -0.8551445922851563 0.15627369689941406 0.05
  endloop
 endfacet
 facet normal 0.8443289399147034 0.535825252532959 -0.0
  outer loop
   vertex -0.85413525390625 0.1546832275390625 3.436030824558074e-17
   vertex -0.8551445922851563 0.15627369689941406 3.471021416795971e-17
   vertex -0.85413525390625 0.1546832275390625 0.05
  endloop
 endfacet
 facet normal 0.7705090045928955 0.6374291181564331 0.0
  outer loop
   vertex -0.8529345092773438 0.15323179626464845 3.404099376512482e-17
   vertex -0.85413525390625 0.1546832275390625 3.436030824558074e-17
   vertex -0.85413525390625 0.1546832275390625 0.05
  endloop
 endfacet
 facet normal 0.6845466494560242 0.7289690971374512 -0.0
  outer loop
   vertex -0.8529345092773438 0.15323179626464845 3.404099376512482e-17
   vertex -0.8529345092773438 0.15323179626464845 0.05
   vertex -0.8515613403320312 0.1519423065185547 0.05
  endloop
 endfacet
 facet normal 0.7705090045928955 0.6374291181564331 -0.0
  outer loop
   vertex -0.8529345092773438 0.15323179626464845 3.404099376512482e-17
   vertex -0.85413525390625 0.1546832275390625 0.05
   vertex -0.8529345092773438 0.15323179626464845 0.05
  endloop
 endfacet
 facet normal 0.6845466494560242 0.7289690971374512 -0.0
  outer loop
   vertex -0.8515613403320312 0.1519423065185547 3.375730549043041e-17
   vertex -0.8529345092773438 0.15323179626464845 3.404099376512482e-17
   vertex -0.8515613403320312 0.1519423065185547 0.05
  endloop
 endfacet
 facet normal 0.5877944827079773 0.8090102672576904 0.0
  outer loop
   vertex -0.8500374145507813 0.1508350830078125 3.3513719143590806e-17
   vertex -0.8515613403320312 0.1519423065185547 3.375730549043041e-17
   vertex -0.8515613403320312 0.1519423065185547 0.05
  endloop
 endfacet
 facet normal 0.5877944827079773 0.8090102672576904 -0.0
  outer loop
   vertex -0.8500374145507813 0.1508350830078125 3.3513719143590806e-17
   vertex -0.8515613403320312 0.1519423065185547 0.05
   vertex -0.8500374145507813 0.1508350830078125 0.05
  endloop
 endfacet
 facet normal 0.4817570447921753 0.8763048648834229 0.0
  outer loop
   vertex -0.84838671875 0.14992759704589845 3.3314070089791174e-17
   vertex -0.8500374145507813 0.1508350830078125 3.3513719143590806e-17
   vertex -0.8500374145507813 0.1508350830078125 0.05
  endloop
 endfacet
 facet normal 0.4817570447921753 0.8763048648834229 -0.0
  outer loop
   vertex -0.84838671875 0.14992759704589845 3.3314070089791174e-17
   vertex -0.8500374145507813 0.1508350830078125 0.05
   vertex -0.84838671875 0.14992759704589845 0.05
  endloop
 endfacet
 facet normal 0.3681231439113617 0.9297770857810974 0.0
  outer loop
   vertex -0.84663525390625 0.14923414611816407 3.3161512679727096e-17
   vertex -0.84838671875 0.14992759704589845 3.3314070089791174e-17
   vertex -0.84838671875 0.14992759704589845 0.05
  endloop
 endfacet
 facet normal 0.3681231439113617 0.9297770857810974 -0.0
  outer loop
   vertex -0.84663525390625 0.14923414611816407 3.3161512679727096e-17
   vertex -0.84838671875 0.14992759704589845 0.05
   vertex -0.84663525390625 0.14923414611816407 0.05
  endloop
 endfacet
 facet normal 0.2486908733844757 0.9685829281806946 0.0
  outer loop
   vertex -0.8448107299804688 0.14876568603515625 3.305845248696877e-17
   vertex -0.84663525390625 0.14923414611816407 3.3161512679727096e-17
   vertex -0.84663525390625 0.14923414611816407 0.05
  endloop
 endfacet
 facet normal 0.12532667815685272 0.9921154975891113 -0.0
  outer loop
   vertex -0.8448107299804688 0.14876568603515625 3.305845248696877e-17
   vertex -0.8448107299804688 0.14876568603515625 0.05
   vertex -0.8429418334960938 0.14852960205078125 0.05
  endloop
 endfacet
 facet normal 0.2486908733844757 0.9685829281806946 -0.0
  outer loop
   vertex -0.8448107299804688 0.14876568603515625 3.305845248696877e-17
   vertex -0.84663525390625 0.14923414611816407 0.05
   vertex -0.8448107299804688 0.14876568603515625 0.05
  endloop
 endfacet
 facet normal 0.12532667815685272 0.9921154975891113 -0.0
  outer loop
   vertex -0.8429418334960938 0.14852960205078125 3.300651242664314e-17
   vertex -0.8448107299804688 0.14876568603515625 3.305845248696877e-17
   vertex -0.8429418334960938 0.14852960205078125 0.05
  endloop
 endfacet
 facet normal 0.0 1.0 0.0
  outer loop
   vertex -0.8410581665039063 0.14852960205078125 3.300651242664314e-17
   vertex -0.8429418334960938 0.14852960205078125 3.300651242664314e-17
   vertex -0.8429418334960938 0.14852960205078125 0.05
  endloop
 endfacet
 facet normal 0.0 1.0 -0.0
  outer loop
   vertex -0.8410581665039063 0.14852960205078125 3.300651242664314e-17
   vertex -0.8429418334960938 0.14852960205078125 0.05
   vertex -0.8410581665039063 0.14852960205078125 0.05
  endloop
 endfacet
 facet normal -0.12532667815685272 0.9921154975891113 0.0
  outer loop
   vertex -0.8391892700195313 0.14876568603515625 3.305845248696877e-17
   vertex -0.8410581665039063 0.14852960205078125 3.300651242664314e-17
   vertex -0.8410581665039063 0.14852960205078125 0.05
  endloop
 endfacet
 facet normal -0.2486908733844757 0.9685829281806946 0.0
  outer loop
   vertex -0.8391892700195313 0.14876568603515625 3.305845248696877e-17
   vertex -0.8391892700195313 0.14876568603515625 0.05
   vertex -0.83736474609375 0.14923414611816407 0.05
  endloop
 endfacet
 facet normal -0.12532667815685272 0.9921154975891113 0.0
  outer loop
   vertex -0.8391892700195313 0.14876568603515625 3.305845248696877e-17
   vertex -0.8410581665039063 0.14852960205078125 0.05
   vertex -0.8391892700195313 0.14876568603515625 0.05
  endloop
 endfacet
 facet normal -0.2486908733844757 0.9685829281806946 0.0
  outer loop
   vertex -0.83736474609375 0.14923414611816407 3.3161512679727096e-17
   vertex -0.8391892700195313 0.14876568603515625 3.305845248696877e-17
   vertex -0.83736474609375 0.14923414611816407 0.05
  endloop
 endfacet
 facet normal -0.3681231439113617 0.9297770857810974 0.0
  outer loop
   vertex -0.83561328125 0.14992759704589845 3.3314070089791174e-17
   vertex -0.83736474609375 0.14923414611816407 0.05
   vertex -0.83561328125 0.14992759704589845 0.05
  endloop
 endfacet
 facet normal -0.3681231439113617 0.9297770857810974 0.0
  outer loop
   vertex -0.83561328125 0.14992759704589845 3.3314070089791174e-17
   vertex -0.83736474609375 0.14923414611816407 3.3161512679727096e-17
   vertex -0.83736474609375 0.14923414611816407 0.05
  endloop
 endfacet
 facet normal -0.5877944827079773 0.8090102672576904 0.0
  outer loop
   vertex -0.8339625854492188 0.1508350830078125 3.3513719143590806e-17
   vertex -0.8339625854492188 0.1508350830078125 0.05
   vertex -0.8324386596679688 0.1519423065185547 0.05
  endloop
 endfacet
 facet normal -0.4817570447921753 0.8763048648834229 0.0
  outer loop
   vertex -0.8339625854492188 0.1508350830078125 3.3513719143590806e-17
   vertex -0.83561328125 0.14992759704589845 0.05
   vertex -0.8339625854492188 0.1508350830078125 0.05
  endloop
 endfacet
 facet normal -0.4817570447921753 0.8763048648834229 0.0
  outer loop
   vertex -0.8339625854492188 0.1508350830078125 3.3513719143590806e-17
   vertex -0.83561328125 0.14992759704589845 3.3314070089791174e-17
   vertex -0.83561328125 0.14992759704589845 0.05
  endloop
 endfacet
 facet normal -0.5877944827079773 0.8090102672576904 0.0
  outer loop
   vertex -0.8324386596679688 0.1519423065185547 3.375730549043041e-17
   vertex -0.8339625854492188 0.1508350830078125 3.3513719143590806e-17
   vertex -0.8324386596679688 0.1519423065185547 0.05
  endloop
 endfacet
 facet normal -0.7705090045928955 0.6374291181564331 0.0
  outer loop
   vertex -0.8310654907226562 0.15323179626464845 3.404099376512482e-17
   vertex -0.8310654907226562 0.15323179626464845 0.05
   vertex -0.82986474609375 0.1546832275390625 0.05
  endloop
 endfacet
 facet normal -0.6845466494560242 0.7289690971374512 0.0
  outer loop
   vertex -0.8310654907226562 0.15323179626464845 3.404099376512482e-17
   vertex -0.8324386596679688 0.1519423065185547 0.05
   vertex -0.8310654907226562 0.15323179626464845 0.05
  endloop
 endfacet
 facet normal -0.6845466494560242 0.7289690971374512 0.0
  outer loop
   vertex -0.8310654907226562 0.15323179626464845 3.404099376512482e-17
   vertex -0.8324386596679688 0.1519423065185547 3.375730549043041e-17
   vertex -0.8324386596679688 0.1519423065185547 0.05
  endloop
 endfacet
 facet normal -0.7705090045928955 0.6374291181564331 0.0
  outer loop
   vertex -0.82986474609375 0.1546832275390625 3.436030824558074e-17
   vertex -0.8310654907226562 0.15323179626464845 3.404099376512482e-17
   vertex -0.82986474609375 0.1546832275390625 0.05
  endloop
 endfacet
 facet normal -0.8443289399147034 0.535825252532959 0.0
  outer loop
   vertex -0.8288554077148438 0.15627369689941406 3.471021416795971e-17
   vertex -0.82986474609375 0.1546832275390625 0.05
   vertex -0.8288554077148438 0.15627369689941406 0.05
  endloop
 endfacet
 facet normal -0.8443289399147034 0.535825252532959 0.0
  outer loop
   vertex -0.8288554077148438 0.15627369689941406 3.471021416795971e-17
   vertex -0.82986474609375 0.1546832275390625 3.436030824558074e-17
   vertex -0.82986474609375 0.1546832275390625 0.05
  endloop
 endfacet
 facet normal -0.9510577321052551 0.30901336669921875 0.0
  outer loop
   vertex -0.8280533447265626 0.15797813415527345 3.5085188877445605e-17
   vertex -0.8280533447265626 0.15797813415527345 0.05
   vertex -0.8274712524414063 0.1597696533203125 0.05
  endloop
 endfacet
 facet normal -0.904823899269104 0.4257861375808716 0.0
  outer loop
   vertex -0.8280533447265626 0.15797813415527345 3.5085188877445605e-17
   vertex -0.8288554077148438 0.15627369689941406 0.05
   vertex -0.8280533447265626 0.15797813415527345 0.05
  endloop
 endfacet
 facet normal -0.904823899269104 0.4257861375808716 0.0
  outer loop
   vertex -0.8280533447265626 0.15797813415527345 3.5085188877445605e-17
   vertex -0.8288554077148438 0.15627369689941406 3.471021416795971e-17
   vertex -0.8288554077148438 0.15627369689941406 0.05
  endloop
 endfacet
 facet normal -0.9510577321052551 0.30901336669921875 0.0
  outer loop
   vertex -0.8274712524414063 0.1597696533203125 3.54793234721984e-17
   vertex -0.8280533447265626 0.15797813415527345 3.5085188877445605e-17
   vertex -0.8274712524414063 0.1597696533203125 0.05
  endloop
 endfacet
 facet normal -0.9822877049446106 0.18737861514091492 0.0
  outer loop
   vertex -0.8271182861328125 0.1616199951171875 3.588640073038524e-17
   vertex -0.8274712524414063 0.1597696533203125 3.54793234721984e-17
   vertex -0.8274712524414063 0.1597696533203125 0.05
  endloop
 endfacet
 facet normal -0.9822877049446106 0.18737861514091492 0.0
  outer loop
   vertex -0.8271182861328125 0.1616199951171875 3.588640073038524e-17
   vertex -0.8274712524414063 0.1597696533203125 0.05
   vertex -0.8271182861328125 0.1616199951171875 0.05
  endloop
 endfacet
 facet normal -0.9980264902114868 0.06279382109642029 0.0
  outer loop
   vertex -0.8270000000000001 0.1635 0.0
   vertex -0.8271182861328125 0.1616199951171875 3.588640073038524e-17
   vertex -0.8271182861328125 0.1616199951171875 0.05
  endloop
 endfacet
 facet normal -0.9980264902114868 0.06279382109642029 0.0
  outer loop
   vertex -0.8270000000000001 0.1635 0.0
   vertex -0.8271182861328125 0.1616199951171875 0.05
   vertex -0.8270000000000001 0.1635 0.05
  endloop
 endfacet
 facet normal -0.9980264902114868 -0.06279382109642029 0.0
  outer loop
   vertex -0.357 0.1635 0.0
   vertex -0.357 0.1635 0.05
   vertex -0.3571182861328125 0.16538000488281251 0.05
  endloop
 endfacet
 facet normal -0.9822877049446106 -0.18737861514091492 0.0
  outer loop
   vertex -0.3571182861328125 0.16538000488281251 3.6713599554146634e-17
   vertex -0.3571182861328125 0.16538000488281251 0.05
   vertex -0.35747125244140626 0.1672303466796875 0.05
  endloop
 endfacet
 facet normal -0.9980264902114868 -0.06279382109642029 0.0
  outer loop
   vertex -0.3571182861328125 0.16538000488281251 3.6713599554146634e-17
   vertex -0.357 0.1635 0.0
   vertex -0.3571182861328125 0.16538000488281251 0.05
  endloop
 endfacet
 facet normal -0.9822877049446106 -0.18737861514091492 0.0
  outer loop
   vertex -0.35747125244140626 0.1672303466796875 3.712067681233347e-17
   vertex -0.3571182861328125 0.16538000488281251 3.6713599554146634e-17
   vertex -0.35747125244140626 0.1672303466796875 0.05
  endloop
 endfacet
 facet normal -0.9510577321052551 -0.30901336669921875 0.0
  outer loop
   vertex -0.35747125244140626 0.1672303466796875 3.712067681233347e-17
   vertex -0.35747125244140626 0.1672303466796875 0.05
   vertex -0.35805334472656253 0.16902186584472656 0.05
  endloop
 endfacet
 facet normal -0.9510577321052551 -0.30901336669921875 0.0
  outer loop
   vertex -0.35805334472656253 0.16902186584472656 3.751481140708626e-17
   vertex -0.35747125244140626 0.1672303466796875 3.712067681233347e-17
   vertex -0.35805334472656253 0.16902186584472656 0.05
  endloop
 endfacet
 facet normal -0.904823899269104 -0.4257861375808716 0.0
  outer loop
   vertex -0.35805334472656253 0.16902186584472656 3.751481140708626e-17
   vertex -0.35805334472656253 0.16902186584472656 0.05
   vertex -0.35885540771484375 0.17072630310058595 0.05
  endloop
 endfacet
 facet normal -0.904823899269104 -0.4257861375808716 0.0
  outer loop
   vertex -0.35885540771484375 0.17072630310058595 3.7889786116572165e-17
   vertex -0.35805334472656253 0.16902186584472656 3.751481140708626e-17
   vertex -0.35885540771484375 0.17072630310058595 0.05
  endloop
 endfacet
 facet normal -0.8443289399147034 -0.535825252532959 0.0
  outer loop
   vertex -0.35885540771484375 0.17072630310058595 3.7889786116572165e-17
   vertex -0.35885540771484375 0.17072630310058595 0.05
   vertex -0.35986474609375 0.17231677246093752 0.05
  endloop
 endfacet
 facet normal -0.8443289399147034 -0.535825252532959 0.0
  outer loop
   vertex -0.35986474609375 0.17231677246093752 3.8239692038951125e-17
   vertex -0.35885540771484375 0.17072630310058595 3.7889786116572165e-17
   vertex -0.35986474609375 0.17231677246093752 0.05
  endloop
 endfacet
 facet normal -0.7705169320106506 -0.6374194622039795 0.0
  outer loop
   vertex -0.35986474609375 0.17231677246093752 3.8239692038951125e-17
   vertex -0.35986474609375 0.17231677246093752 0.05
   vertex -0.3610654602050781 0.17376820373535157 0.05
  endloop
 endfacet
 facet normal -0.7705169320106506 -0.6374194622039795 0.0
  outer loop
   vertex -0.3610654602050781 0.17376820373535157 3.8559006519407054e-17
   vertex -0.35986474609375 0.17231677246093752 3.8239692038951125e-17
   vertex -0.3610654602050781 0.17376820373535157 0.05
  endloop
 endfacet
 facet normal -0.6845466494560242 -0.7289690971374512 0.0
  outer loop
   vertex -0.3610654602050781 0.17376820373535157 3.8559006519407054e-17
   vertex -0.3610654602050781 0.17376820373535157 0.05
   vertex -0.36243862915039066 0.17505769348144531 0.05
  endloop
 endfacet
 facet normal -0.6845466494560242 -0.7289690971374512 0.0
  outer loop
   vertex -0.36243862915039066 0.17505769348144531 3.884269479410146e-17
   vertex -0.3610654602050781 0.17376820373535157 3.8559006519407054e-17
   vertex -0.36243862915039066 0.17505769348144531 0.05
  endloop
 endfacet
 facet normal -0.5877867937088013 -0.8090159296989441 0.0
  outer loop
   vertex -0.36243862915039066 0.17505769348144531 3.884269479410146e-17
   vertex -0.36243862915039066 0.17505769348144531 0.05
   vertex -0.3639625854492188 0.1761649169921875 0.05
  endloop
 endfacet
 facet normal -0.5877867937088013 -0.8090159296989441 0.0
  outer loop
   vertex -0.3639625854492188 0.1761649169921875 3.9086281140941066e-17
   vertex -0.36243862915039066 0.17505769348144531 3.884269479410146e-17
   vertex -0.3639625854492188 0.1761649169921875 0.05
  endloop
 endfacet
 facet normal -0.4817501902580261 -0.8763085603713989 0.0
  outer loop
   vertex -0.3639625854492188 0.1761649169921875 3.9086281140941066e-17
   vertex -0.3639625854492188 0.1761649169921875 0.05
   vertex -0.3656133117675781 0.17707240295410157 0.05
  endloop
 endfacet
 facet normal -0.4817501902580261 -0.8763085603713989 0.0
  outer loop
   vertex -0.3656133117675781 0.17707240295410157 3.928593019474069e-17
   vertex -0.3639625854492188 0.1761649169921875 3.9086281140941066e-17
   vertex -0.3656133117675781 0.17707240295410157 0.05
  endloop
 endfacet
 facet normal -0.3681287169456482 -0.9297748804092407 0.0
  outer loop
   vertex -0.3656133117675781 0.17707240295410157 3.928593019474069e-17
   vertex -0.3656133117675781 0.17707240295410157 0.05
   vertex -0.36736474609375 0.17776585388183594 0.05
  endloop
 endfacet
 facet normal -0.3681287169456482 -0.9297748804092407 0.0
  outer loop
   vertex -0.36736474609375 0.17776585388183594 3.943848760480477e-17
   vertex -0.3656133117675781 0.17707240295410157 3.928593019474069e-17
   vertex -0.36736474609375 0.17776585388183594 0.05
  endloop
 endfacet
 facet normal -0.2486908733844757 -0.9685829281806946 0.0
  outer loop
   vertex -0.36736474609375 0.17776585388183594 3.943848760480477e-17
   vertex -0.36736474609375 0.17776585388183594 0.05
   vertex -0.3691892700195313 0.17823431396484377 0.05
  endloop
 endfacet
 facet normal -0.2486908733844757 -0.9685829281806946 0.0
  outer loop
   vertex -0.3691892700195313 0.17823431396484377 3.9541547797563094e-17
   vertex -0.36736474609375 0.17776585388183594 3.943848760480477e-17
   vertex -0.3691892700195313 0.17823431396484377 0.05
  endloop
 endfacet
 facet normal -0.1253286898136139 -0.9921152591705322 0.0
  outer loop
   vertex -0.3691892700195313 0.17823431396484377 3.9541547797563094e-17
   vertex -0.3691892700195313 0.17823431396484377 0.05
   vertex -0.37105813598632814 0.17847039794921876 0.05
  endloop
 endfacet
 facet normal -0.1253286898136139 -0.9921152591705322 0.0
  outer loop
   vertex -0.37105813598632814 0.17847039794921876 3.959348785788873e-17
   vertex -0.3691892700195313 0.17823431396484377 3.9541547797563094e-17
   vertex -0.37105813598632814 0.17847039794921876 0.05
  endloop
 endfacet
 facet normal 0.0 -1.0 0.0
  outer loop
   vertex -0.37105813598632814 0.17847039794921876 3.959348785788873e-17
   vertex -0.37105813598632814 0.17847039794921876 0.05
   vertex -0.3729418640136719 0.17847039794921876 0.05
  endloop
 endfacet
 facet normal 0.0 -1.0 0.0
  outer loop
   vertex -0.3729418640136719 0.17847039794921876 3.959348785788873e-17
   vertex -0.37105813598632814 0.17847039794921876 3.959348785788873e-17
   vertex -0.3729418640136719 0.17847039794921876 0.05
  endloop
 endfacet
 facet normal 0.1253286898136139 -0.9921152591705322 0.0
  outer loop
   vertex -0.37481072998046877 0.17823431396484377 3.9541547797563094e-17
   vertex -0.3729418640136719 0.17847039794921876 3.959348785788873e-17
   vertex -0.3729418640136719 0.17847039794921876 0.05
  endloop
 endfacet
 facet normal 0.2486908733844757 -0.9685829281806946 0.0
  outer loop
   vertex -0.37481072998046877 0.17823431396484377 3.9541547797563094e-17
   vertex -0.37481072998046877 0.17823431396484377 0.05
   vertex -0.37663525390625 0.17776585388183594 0.05
  endloop
 endfacet
 facet normal 0.1253286898136139 -0.9921152591705322 0.0
  outer loop
   vertex -0.37481072998046877 0.17823431396484377 3.9541547797563094e-17
   vertex -0.3729418640136719 0.17847039794921876 0.05
   vertex -0.37481072998046877 0.17823431396484377 0.05
  endloop
 endfacet
 facet normal 0.2486908733844757 -0.9685829281806946 0.0
  outer loop
   vertex -0.37663525390625 0.17776585388183594 3.943848760480477e-17
   vertex -0.37481072998046877 0.17823431396484377 3.9541547797563094e-17
   vertex -0.37663525390625 0.17776585388183594 0.05
  endloop
 endfacet
 facet normal 0.3681287169456482 -0.9297748804092407 0.0
  outer loop
   vertex -0.37663525390625 0.17776585388183594 3.943848760480477e-17
   vertex -0.37663525390625 0.17776585388183594 0.05
   vertex -0.3783866882324219 0.17707240295410157 0.05
  endloop
 endfacet
 facet normal 0.3681287169456482 -0.9297748804092407 0.0
  outer loop
   vertex -0.3783866882324219 0.17707240295410157 3.928593019474069e-17
   vertex -0.37663525390625 0.17776585388183594 3.943848760480477e-17
   vertex -0.3783866882324219 0.17707240295410157 0.05
  endloop
 endfacet
 facet normal 0.4817501902580261 -0.8763085603713989 0.0
  outer loop
   vertex -0.3783866882324219 0.17707240295410157 3.928593019474069e-17
   vertex -0.3783866882324219 0.17707240295410157 0.05
   vertex -0.38003741455078127 0.1761649169921875 0.05
  endloop
 endfacet
 facet normal 0.4817501902580261 -0.8763085603713989 0.0
  outer loop
   vertex -0.38003741455078127 0.1761649169921875 3.9086281140941066e-17
   vertex -0.3783866882324219 0.17707240295410157 3.928593019474069e-17
   vertex -0.38003741455078127 0.1761649169921875 0.05
  endloop
 endfacet
 facet normal 0.5877867937088013 -0.8090159296989441 0.0
  outer loop
   vertex -0.38003741455078127 0.1761649169921875 3.9086281140941066e-17
   vertex -0.38003741455078127 0.1761649169921875 0.05
   vertex -0.3815613708496094 0.17505769348144531 0.05
  endloop
 endfacet
 facet normal 0.5877867937088013 -0.8090159296989441 0.0
  outer loop
   vertex -0.3815613708496094 0.17505769348144531 3.884269479410146e-17
   vertex -0.38003741455078127 0.1761649169921875 3.9086281140941066e-17
   vertex -0.3815613708496094 0.17505769348144531 0.05
  endloop
 endfacet
 facet normal 0.6845466494560242 -0.7289690971374512 0.0
  outer loop
   vertex -0.3815613708496094 0.17505769348144531 3.884269479410146e-17
   vertex -0.3815613708496094 0.17505769348144531 0.05
   vertex -0.38293453979492187 0.17376820373535157 0.05
  endloop
 endfacet
 facet normal 0.6845466494560242 -0.7289690971374512 0.0
  outer loop
   vertex -0.38293453979492187 0.17376820373535157 3.8559006519407054e-17
   vertex -0.3815613708496094 0.17505769348144531 3.884269479410146e-17
   vertex -0.38293453979492187 0.17376820373535157 0.05
  endloop
 endfacet
 facet normal 0.8443289399147034 -0.535825252532959 0.0
  outer loop
   vertex -0.38413525390625003 0.17231677246093752 3.8239692038951125e-17
   vertex -0.38413525390625003 0.17231677246093752 0.05
   vertex -0.38514459228515624 0.17072630310058595 0.05
  endloop
 endfacet
 facet normal 0.7705169320106506 -0.6374194622039795 0.0
  outer loop
   vertex -0.38413525390625003 0.17231677246093752 3.8239692038951125e-17
   vertex -0.38293453979492187 0.17376820373535157 0.05
   vertex -0.38413525390625003 0.17231677246093752 0.05
  endloop
 endfacet
 facet normal 0.7705169320106506 -0.6374194622039795 0.0
  outer loop
   vertex -0.38413525390625003 0.17231677246093752 3.8239692038951125e-17
   vertex -0.38293453979492187 0.17376820373535157 3.8559006519407054e-17
   vertex -0.38293453979492187 0.17376820373535157 0.05
  endloop
 endfacet
 facet normal 0.8443289399147034 -0.535825252532959 0.0
  outer loop
   vertex -0.38514459228515624 0.17072630310058595 3.7889786116572165e-17
   vertex -0.38413525390625003 0.17231677246093752 3.8239692038951125e-17
   vertex -0.38514459228515624 0.17072630310058595 0.05
  endloop
 endfacet
 facet normal 0.9510577321052551 -0.30901336669921875 0.0
  outer loop
   vertex -0.3859466552734375 0.16902186584472656 3.751481140708626e-17
   vertex -0.3859466552734375 0.16902186584472656 0.05
   vertex -0.38652874755859373 0.1672303466796875 0.05
  endloop
 endfacet
 facet normal 0.904823899269104 -0.4257861375808716 0.0
  outer loop
   vertex -0.3859466552734375 0.16902186584472656 3.751481140708626e-17
   vertex -0.38514459228515624 0.17072630310058595 0.05
   vertex -0.3859466552734375 0.16902186584472656 0.05
  endloop
 endfacet
 facet normal 0.904823899269104 -0.4257861375808716 0.0
  outer loop
   vertex -0.3859466552734375 0.16902186584472656 3.751481140708626e-17
   vertex -0.38514459228515624 0.17072630310058595 3.7889786116572165e-17
   vertex -0.38514459228515624 0.17072630310058595 0.05
  endloop
 endfacet
 facet normal 0.9510577321052551 -0.30901336669921875 0.0
  outer loop
   vertex -0.38652874755859373 0.1672303466796875 3.712067681233347e-17
   vertex -0.3859466552734375 0.16902186584472656 3.751481140708626e-17
   vertex -0.38652874755859373 0.1672303466796875 0.05
  endloop
 endfacet
 facet normal 0.9822877049446106 -0.18737861514091492 0.0
  outer loop
   vertex -0.3868817138671875 0.16538000488281251 3.6713599554146634e-17
   vertex -0.38652874755859373 0.1672303466796875 3.712067681233347e-17
   vertex -0.38652874755859373 0.1672303466796875 0.05
  endloop
 endfacet
 facet normal 0.9980264902114868 -0.06279382109642029 0.0
  outer loop
   vertex -0.3868817138671875 0.16538000488281251 3.6713599554146634e-17
   vertex -0.3868817138671875 0.16538000488281251 0.05
   vertex -0.387 0.1635 0.05
  endloop
 endfacet
 facet normal 0.9822877049446106 -0.18737861514091492 0.0
  outer loop
   vertex -0.3868817138671875 0.16538000488281251 3.6713599554146634e-17
   vertex -0.38652874755859373 0.1672303466796875 0.05
   vertex -0.3868817138671875 0.16538000488281251 0.05
  endloop
 endfacet
 facet normal 0.9980264902114868 -0.06279382109642029 0.0
  outer loop
   vertex -0.387 0.1635 3.6300000142265936e-17
   vertex -0.3868817138671875 0.16538000488281251 3.6713599554146634e-17
   vertex -0.387 0.1635 0.05
  endloop
 endfacet
 facet normal 0.9980264902114868 0.06279382109642029 0.0
  outer loop
   vertex -0.3868817138671875 0.1616199951171875 3.588640073038524e-17
   vertex -0.387 0.1635 3.6300000142265936e-17
   vertex -0.387 0.1635 0.05
  endloop
 endfacet
 facet normal 0.9980264902114868 0.06279382109642029 -0.0
  outer loop
   vertex -0.3868817138671875 0.1616199951171875 3.588640073038524e-17
   vertex -0.387 0.1635 0.05
   vertex -0.3868817138671875 0.1616199951171875 0.05
  endloop
 endfacet
 facet normal 0.9822877049446106 0.18737861514091492 0.0
  outer loop
   vertex -0.38652874755859373 0.1597696533203125 3.54793234721984e-17
   vertex -0.3868817138671875 0.1616199951171875 3.588640073038524e-17
   vertex -0.3868817138671875 0.1616199951171875 0.05
  endloop
 endfacet
 facet normal 0.9822877049446106 0.18737861514091492 -0.0
  outer loop
   vertex -0.38652874755859373 0.1597696533203125 3.54793234721984e-17
   vertex -0.3868817138671875 0.1616199951171875 0.05
   vertex -0.38652874755859373 0.1597696533203125 0.05
  endloop
 endfacet
 facet normal 0.9510577321052551 0.30901336669921875 0.0
  outer loop
   vertex -0.3859466552734375 0.15797813415527345 3.5085188877445605e-17
   vertex -0.38652874755859373 0.1597696533203125 3.54793234721984e-17
   vertex -0.38652874755859373 0.1597696533203125 0.05
  endloop
 endfacet
 facet normal 0.9510577321052551 0.30901336669921875 -0.0
  outer loop
   vertex -0.3859466552734375 0.15797813415527345 3.5085188877445605e-17
   vertex -0.38652874755859373 0.1597696533203125 0.05
   vertex -0.3859466552734375 0.15797813415527345 0.05
  endloop
 endfacet
 facet normal 0.904823899269104 0.4257861375808716 0.0
  outer loop
   vertex -0.38514459228515624 0.15627369689941406 3.471021416795971e-17
   vertex -0.3859466552734375 0.15797813415527345 3.5085188877445605e-17
   vertex -0.3859466552734375 0.15797813415527345 0.05
  endloop
 endfacet
 facet normal 0.8443289399147034 0.535825252532959 -0.0
  outer loop
   vertex -0.38514459228515624 0.15627369689941406 3.471021416795971e-17
   vertex -0.38514459228515624 0.15627369689941406 0.05
   vertex -0.38413525390625003 0.1546832275390625 0.05
  endloop
 endfacet
 facet normal 0.904823899269104 0.4257861375808716 -0.0
  outer loop
   vertex -0.38514459228515624 0.15627369689941406 3.471021416795971e-17
   vertex -0.3859466552734375 0.15797813415527345 0.05
   vertex -0.38514459228515624 0.15627369689941406 0.05
  endloop
 endfacet
 facet normal 0.8443289399147034 0.535825252532959 -0.0
  outer loop
   vertex -0.38413525390625003 0.1546832275390625 3.436030824558074e-17
   vertex -0.38514459228515624 0.15627369689941406 3.471021416795971e-17
   vertex -0.38413525390625003 0.1546832275390625 0.05
  endloop
 endfacet
 facet normal 0.7705169320106506 0.6374194622039795 0.0
  outer loop
   vertex -0.38293453979492187 0.15323179626464845 3.404099376512482e-17
   vertex -0.38413525390625003 0.1546832275390625 3.436030824558074e-17
   vertex -0.38413525390625003 0.1546832275390625 0.05
  endloop
 endfacet
 facet normal 0.6845466494560242 0.7289690971374512 -0.0
  outer loop
   vertex -0.38293453979492187 0.15323179626464845 3.404099376512482e-17
   vertex -0.38293453979492187 0.15323179626464845 0.05
   vertex -0.3815613708496094 0.1519423065185547 0.05
  endloop
 endfacet
 facet normal 0.7705169320106506 0.6374194622039795 -0.0
  outer loop
   vertex -0.38293453979492187 0.15323179626464845 3.404099376512482e-17
   vertex -0.38413525390625003 0.1546832275390625 0.05
   vertex -0.38293453979492187 0.15323179626464845 0.05
  endloop
 endfacet
 facet normal 0.6845466494560242 0.7289690971374512 -0.0
  outer loop
   vertex -0.3815613708496094 0.1519423065185547 3.375730549043041e-17
   vertex -0.38293453979492187 0.15323179626464845 3.404099376512482e-17
   vertex -0.3815613708496094 0.1519423065185547 0.05
  endloop
 endfacet
 facet normal 0.5877867937088013 0.8090159296989441 0.0
  outer loop
   vertex -0.38003741455078127 0.1508350830078125 3.3513719143590806e-17
   vertex -0.3815613708496094 0.1519423065185547 3.375730549043041e-17
   vertex -0.3815613708496094 0.1519423065185547 0.05
  endloop
 endfacet
 facet normal 0.5877867937088013 0.8090159296989441 -0.0
  outer loop
   vertex -0.38003741455078127 0.1508350830078125 3.3513719143590806e-17
   vertex -0.3815613708496094 0.1519423065185547 0.05
   vertex -0.38003741455078127 0.1508350830078125 0.05
  endloop
 endfacet
 facet normal 0.4817501902580261 0.8763085603713989 0.0
  outer loop
   vertex -0.3783866882324219 0.14992759704589845 3.3314070089791174e-17
   vertex -0.38003741455078127 0.1508350830078125 3.3513719143590806e-17
   vertex -0.38003741455078127 0.1508350830078125 0.05
  endloop
 endfacet
 facet normal 0.4817501902580261 0.8763085603713989 -0.0
  outer loop
   vertex -0.3783866882324219 0.14992759704589845 3.3314070089791174e-17
   vertex -0.38003741455078127 0.1508350830078125 0.05
   vertex -0.3783866882324219 0.14992759704589845 0.05
  endloop
 endfacet
 facet normal 0.3681287169456482 0.9297748804092407 0.0
  outer loop
   vertex -0.37663525390625 0.14923414611816407 3.3161512679727096e-17
   vertex -0.3783866882324219 0.14992759704589845 3.3314070089791174e-17
   vertex -0.3783866882324219 0.14992759704589845 0.05
  endloop
 endfacet
 facet normal 0.3681287169456482 0.9297748804092407 -0.0
  outer loop
   vertex -0.37663525390625 0.14923414611816407 3.3161512679727096e-17
   vertex -0.3783866882324219 0.14992759704589845 0.05
   vertex -0.37663525390625 0.14923414611816407 0.05
  endloop
 endfacet
 facet normal 0.2486908733844757 0.9685829281806946 0.0
  outer loop
   vertex -0.37481072998046877 0.14876568603515625 3.305845248696877e-17
   vertex -0.37663525390625 0.14923414611816407 3.3161512679727096e-17
   vertex -0.37663525390625 0.14923414611816407 0.05
  endloop
 endfacet
 facet normal 0.1253286898136139 0.9921152591705322 -0.0
  outer loop
   vertex -0.37481072998046877 0.14876568603515625 3.305845248696877e-17
   vertex -0.37481072998046877 0.14876568603515625 0.05
   vertex -0.3729418640136719 0.14852960205078125 0.05
  endloop
 endfacet
 facet normal 0.2486908733844757 0.9685829281806946 -0.0
  outer loop
   vertex -0.37481072998046877 0.14876568603515625 3.305845248696877e-17
   vertex -0.37663525390625 0.14923414611816407 0.05
   vertex -0.37481072998046877 0.14876568603515625 0.05
  endloop
 endfacet
 facet normal 0.1253286898136139 0.9921152591705322 -0.0
  outer loop
   vertex -0.3729418640136719 0.14852960205078125 3.300651242664314e-17
   vertex -0.37481072998046877 0.14876568603515625 3.305845248696877e-17
   vertex -0.3729418640136719 0.14852960205078125 0.05
  endloop
 endfacet
 facet normal 0.0 1.0 0.0
  outer loop
   vertex -0.37105813598632814 0.14852960205078125 3.300651242664314e-17
   vertex -0.3729418640136719 0.14852960205078125 3.300651242664314e-17
   vertex -0.3729418640136719 0.14852960205078125 0.05
  endloop
 endfacet
 facet normal 0.0 1.0 -0.0
  outer loop
   vertex -0.37105813598632814 0.14852960205078125 3.300651242664314e-17
   vertex -0.3729418640136719 0.14852960205078125 0.05
   vertex -0.37105813598632814 0.14852960205078125 0.05
  endloop
 endfacet
 facet normal -0.1253286898136139 0.9921152591705322 0.0
  outer loop
   vertex -0.3691892700195313 0.14876568603515625 3.305845248696877e-17
   vertex -0.37105813598632814 0.14852960205078125 3.300651242664314e-17
   vertex -0.37105813598632814 0.14852960205078125 0.05
  endloop
 endfacet
 facet normal -0.2486908733844757 0.9685829281806946 0.0
  outer loop
   vertex -0.3691892700195313 0.14876568603515625 3.305845248696877e-17
   vertex -0.3691892700195313 0.14876568603515625 0.05
   vertex -0.36736474609375 0.14923414611816407 0.05
  endloop
 endfacet
 facet normal -0.1253286898136139 0.9921152591705322 0.0
  outer loop
   vertex -0.3691892700195313 0.14876568603515625 3.305845248696877e-17
   vertex -0.37105813598632814 0.14852960205078125 0.05
   vertex -0.3691892700195313 0.14876568603515625 0.05
  endloop
 endfacet
 facet normal -0.2486908733844757 0.9685829281806946 0.0
  outer loop
   vertex -0.36736474609375 0.14923414611816407 3.3161512679727096e-17
   vertex -0.3691892700195313 0.14876568603515625 3.305845248696877e-17
   vertex -0.36736474609375 0.14923414611816407 0.05
  endloop
 endfacet
 facet normal -0.3681287169456482 0.9297748804092407 0.0
  outer loop
   vertex -0.3656133117675781 0.14992759704589845 3.3314070089791174e-17
   vertex -0.36736474609375 0.14923414611816407 0.05
   vertex -0.3656133117675781 0.14992759704589845 0.05
  endloop
 endfacet
 facet normal -0.3681287169456482 0.9297748804092407 0.0
  outer loop
   vertex -0.3656133117675781 0.14992759704589845 3.3314070089791174e-17
   vertex -0.36736474609375 0.14923414611816407 3.3161512679727096e-17
   vertex -0.36736474609375 0.14923414611816407 0.05
  endloop
 endfacet
 facet normal -0.5877867937088013 0.8090159296989441 0.0
  outer loop
   vertex -0.3639625854492188 0.1508350830078125 3.3513719143590806e-17
   vertex -0.3639625854492188 0.1508350830078125 0.05
   vertex -0.36243862915039066 0.1519423065185547 0.05
  endloop
 endfacet
 facet normal -0.4817501902580261 0.8763085603713989 0.0
  outer loop
   vertex -0.3639625854492188 0.1508350830078125 3.3513719143590806e-17
   vertex -0.3656133117675781 0.14992759704589845 0.05
   vertex -0.3639625854492188 0.1508350830078125 0.05
  endloop
 endfacet
 facet normal -0.4817501902580261 0.8763085603713989 0.0
  outer loop
   vertex -0.3639625854492188 0.1508350830078125 3.3513719143590806e-17
   vertex -0.3656133117675781 0.14992759704589845 3.3314070089791174e-17
   vertex -0.3656133117675781 0.14992759704589845 0.05
  endloop
 endfacet
 facet normal -0.5877867937088013 0.8090159296989441 0.0
  outer loop
   vertex -0.36243862915039066 0.1519423065185547 3.375730549043041e-17
   vertex -0.3639625854492188 0.1508350830078125 3.3513719143590806e-17
   vertex -0.36243862915039066 0.1519423065185547 0.05
  endloop
 endfacet
 facet normal -0.7705169320106506 0.6374194622039795 0.0
  outer loop
   vertex -0.3610654602050781 0.15323179626464845 3.404099376512482e-17
   vertex -0.3610654602050781 0.15323179626464845 0.05
   vertex -0.35986474609375 0.1546832275390625 0.05
  endloop
 endfacet
 facet normal -0.6845466494560242 0.7289690971374512 0.0
  outer loop
   vertex -0.3610654602050781 0.15323179626464845 3.404099376512482e-17
   vertex -0.36243862915039066 0.1519423065185547 0.05
   vertex -0.3610654602050781 0.15323179626464845 0.05
  endloop
 endfacet
 facet normal -0.6845466494560242 0.7289690971374512 0.0
  outer loop
   vertex -0.3610654602050781 0.15323179626464845 3.404099376512482e-17
   vertex -0.36243862915039066 0.1519423065185547 3.375730549043041e-17
   vertex -0.36243862915039066 0.1519423065185547 0.05
  endloop
 endfacet
 facet normal -0.7705169320106506 0.6374194622039795 0.0
  outer loop
   vertex -0.35986474609375 0.1546832275390625 3.436030824558074e-17
   vertex -0.3610654602050781 0.15323179626464845 3.404099376512482e-17
   vertex -0.35986474609375 0.1546832275390625 0.05
  endloop
 endfacet
 facet normal -0.8443289399147034 0.535825252532959 0.0
  outer loop
   vertex -0.35885540771484375 0.15627369689941406 3.471021416795971e-17
   vertex -0.35986474609375 0.1546832275390625 0.05
   vertex -0.35885540771484375 0.15627369689941406 0.05
  endloop
 endfacet
 facet normal -0.8443289399147034 0.535825252532959 0.0
  outer loop
   vertex -0.35885540771484375 0.15627369689941406 3.471021416795971e-17
   vertex -0.35986474609375 0.1546832275390625 3.436030824558074e-17
   vertex -0.35986474609375 0.1546832275390625 0.05
  endloop
 endfacet
 facet normal -0.9510577321052551 0.30901336669921875 0.0
  outer loop
   vertex -0.35805334472656253 0.15797813415527345 3.5085188877445605e-17
   vertex -0.35805334472656253 0.15797813415527345 0.05
   vertex -0.35747125244140626 0.1597696533203125 0.05
  endloop
 endfacet
 facet normal -0.904823899269104 0.4257861375808716 0.0
  outer loop
   vertex -0.35805334472656253 0.15797813415527345 3.5085188877445605e-17
   vertex -0.35885540771484375 0.15627369689941406 0.05
   vertex -0.35805334472656253 0.15797813415527345 0.05
  endloop
 endfacet
 facet normal -0.904823899269104 0.4257861375808716 0.0
  outer loop
   vertex -0.35805334472656253 0.15797813415527345 3.5085188877445605e-17
   vertex -0.35885540771484375 0.15627369689941406 3.471021416795971e-17
   vertex -0.35885540771484375 0.15627369689941406 0.05
  endloop
 endfacet
 facet normal -0.9510577321052551 0.30901336669921875 0.0
  outer loop
   vertex -0.35747125244140626 0.1597696533203125 3.54793234721984e-17
   vertex -0.35805334472656253 0.15797813415527345 3.5085188877445605e-17
   vertex -0.35747125244140626 0.1597696533203125 0.05
  endloop
 endfacet
 facet normal -0.9822877049446106 0.18737861514091492 0.0
  outer loop
   vertex -0.3571182861328125 0.1616199951171875 3.588640073038524e-17
   vertex -0.35747125244140626 0.1597696533203125 3.54793234721984e-17
   vertex -0.35747125244140626 0.1597696533203125 0.05
  endloop
 endfacet
 facet normal -0.9822877049446106 0.18737861514091492 0.0
  outer loop
   vertex -0.3571182861328125 0.1616199951171875 3.588640073038524e-17
   vertex -0.35747125244140626 0.1597696533203125 0.05
   vertex -0.3571182861328125 0.1616199951171875 0.05
  endloop
 endfacet
 facet normal -0.9980264902114868 0.06279382109642029 0.0
  outer loop
   vertex -0.357 0.1635 0.0
   vertex -0.3571182861328125 0.1616199951171875 3.588640073038524e-17
   vertex -0.3571182861328125 0.1616199951171875 0.05
  endloop
 endfacet
 facet normal -0.9980264902114868 0.06279382109642029 0.0
  outer loop
   vertex -0.357 0.1635 0.0
   vertex -0.3571182861328125 0.1616199951171875 0.05
   vertex -0.357 0.1635 0.05
  endloop
 endfacet
endsolid MeshRefinement
