solid patch_0_0
 facet normal 0.0 0.0 1.0
  outer loop
   vertex 6.0188681640625 0.0 2.088
   vertex -3.377132080078125 1.044 2.088
   vertex -3.377132080078125 0.0 2.088
  endloop
 endfacet
 facet normal 0.0 0.0 1.0
  outer loop
   vertex 6.0188681640625 1.044 2.088
   vertex -3.377132080078125 1.044 2.088
   vertex 6.0188681640625 0.0 2.088
  endloop
 endfacet
 facet normal 0.0 1.0 0.0
  outer loop
   vertex 6.0188681640625 1.044 2.088
   vertex 6.0188681640625 1.044 0.0
   vertex -3.377132080078125 1.044 0.0
  endloop
 endfacet
 facet normal 0.0 1.0 0.0
  outer loop
   vertex 6.0188681640625 1.044 2.088
   vertex -3.377132080078125 1.044 0.0
   vertex -3.377132080078125 1.044 2.088
  endloop
 endfacet
endsolid patch_0_0
