solid patch_3_0
 facet normal -1.3551939857833893e-17 -1.0 2.0758207321603577e-16
  outer loop
   vertex -1.014710693359375 -1.5556349611256515e-17 0.07928932189941407
   vertex -1.0206044311523437 -1.414132770979253e-17 0.08572123718261719
   vertex -3.377132080078125 0.0 0.0
  endloop
 endfacet
 facet normal -1.347515433593182e-17 -1.0 2.052941578161631e-16
  outer loop
   vertex -3.377132080078125 0.0 0.0
   vertex -1.0082787475585937 -1.685297748251803e-17 0.0733955535888672
   vertex -1.014710693359375 -1.5556349611256515e-17 0.07928932189941407
  endloop
 endfacet
 facet normal -1.3623394200688061e-17 -1.0 2.095463955602777e-16
  outer loop
   vertex -1.0206044311523437 -1.414132770979253e-17 0.08572123718261719
   vertex -1.0259151611328126 -1.2618681802050412e-17 0.09264235687255859
   vertex -3.377132080078125 0.0 0.0
  endloop
 endfacet
 facet normal -1.3390118514600144e-17 -1.0 2.0254969165772036e-16
  outer loop
   vertex -3.377132080078125 0.0 0.0
   vertex -1.001357666015625 -1.8021344236774513e-17 0.06808479309082031
   vertex -1.0082787475585937 -1.685297748251803e-17 0.0733955535888672
  endloop
 endfacet
 facet normal -1.3691601032457346e-17 -1.0 2.1127742650200006e-16
  outer loop
   vertex -1.0259151611328126 -1.2618681802050412e-17 0.09264235687255859
   vertex -1.0306025390625 -1.1000000145781549e-17 0.1
   vertex -3.377132080078125 0.0 0.0
  endloop
 endfacet
 facet normal -1.3292287863553497e-17 -1.0 1.991358444778201e-16
  outer loop
   vertex -3.377132080078125 0.0 0.0
   vertex -0.994 -1.9052559416211577e-17 0.0633974609375
   vertex -1.001357666015625 -1.8021344236774513e-17 0.06808479309082031
  endloop
 endfacet
 facet normal -1.3758104699345384e-17 -1.0 2.128380317677569e-16
  outer loop
   vertex -1.0306025390625 -1.1000000145781549e-17 0.1
   vertex -1.0346307373046875 -9.297601988170808e-18 0.10773817443847657
   vertex -3.377132080078125 0.0 0.0
  endloop
 endfacet
 facet normal -1.3174073000671707e-17 -1.0 1.9469277285766708e-16
  outer loop
   vertex -3.377132080078125 0.0 0.0
   vertex -0.9862618408203125 -1.9938771025408178e-17 0.05936922073364258
   vertex -0.994 -1.9052559416211577e-17 0.0633974609375
  endloop
 endfacet
 facet normal -1.3021858533072149e-17 -1.0 1.8856229249257527e-16
  outer loop
   vertex -3.377132080078125 0.0 0.0
   vertex -0.9782020263671876 -2.0673238376170065e-17 0.05603073883056641
   vertex -0.9862618408203125 -1.9938771025408178e-17 0.05936922073364258
  endloop
 endfacet
 facet normal -1.382413770046488e-17 -1.0 2.1427375261335295e-16
  outer loop
   vertex -1.0346307373046875 -9.297601988170808e-18 0.10773817443847657
   vertex -1.03796923828125 -7.52444354517939e-18 0.11579798889160156
   vertex -3.377132080078125 0.0 0.0
  endloop
 endfacet
 facet normal -1.2807372254598374e-17 -1.0 1.7937991271385682e-16
  outer loop
   vertex -3.377132080078125 0.0 0.0
   vertex -0.9698818969726563 -2.125036766291357e-17 0.053407417297363285
   vertex -0.9782020263671876 -2.0673238376170065e-17 0.05603073883056641
  endloop
 endfacet
 facet normal -1.3890805976294816e-17 -1.0 2.1562044235525868e-16
  outer loop
   vertex -1.03796923828125 -7.52444354517939e-18 0.11579798889160156
   vertex -1.040592529296875 -5.694018898690003e-18 0.12411809539794923
   vertex -3.377132080078125 0.0 0.0
  endloop
 endfacet
 facet normal -1.2461534657934853e-17 -1.0 1.6379097276880087e-16
  outer loop
   vertex -3.377132080078125 0.0 0.0
   vertex -0.9613648071289063 -2.166577125497192e-17 0.05151922607421875
   vertex -0.9698818969726563 -2.125036766291357e-17 0.053407417297363285
  endloop
 endfacet
 facet normal -1.395905499427534e-17 -1.0 2.1690523251756584e-16
  outer loop
   vertex -1.040592529296875 -5.694018898690003e-18 0.12411809539794923
   vertex -1.0424808349609376 -3.820260046619086e-18 0.1326351776123047
   vertex -3.377132080078125 0.0 0.0
  endloop
 endfacet
 facet normal -1.402993610096501e-17 -1.0 2.1815292528376123e-16
  outer loop
   vertex -1.0424808349609376 -3.820260046619086e-18 0.1326351776123047
   vertex -1.0436195068359375 -1.9174263651171917e-18 0.141284423828125
   vertex -3.377132080078125 0.0 0.0
  endloop
 endfacet
 facet normal -1.410448492649074e-17 -1.0 2.1938420678660356e-16
  outer loop
   vertex -1.0436195068359375 -1.9174263651171917e-18 0.141284423828125
   vertex -1.044 0.0 0.15
   vertex -3.377132080078125 0.0 0.0
  endloop
 endfacet
 facet normal -0.0 -1.0 0.0
  outer loop
   vertex -1.044 0.0 0.15
   vertex -1.044 0.0 0.23800000000000002
   vertex -3.377132080078125 0.0 0.0
  endloop
 endfacet
 facet normal -2.254231943585021e-17 -1.0 2.2098407997039952e-16
  outer loop
   vertex -1.044 0.0 0.23800000000000002
   vertex -1.0436195068359375 1.9174263651171917e-18 0.246715576171875
   vertex -3.377132080078125 0.0 0.0
  endloop
 endfacet
 facet normal -2.2754997497504944e-17 -1.0 2.229956641061203e-16
  outer loop
   vertex -1.0436195068359375 1.9174263651171917e-18 0.246715576171875
   vertex -1.0424808349609376 3.820260046619086e-18 0.2553648223876953
   vertex -3.377132080078125 0.0 0.0
  endloop
 endfacet
 facet normal -2.2984753530086448e-17 -1.0 2.2509619993619254e-16
  outer loop
   vertex -1.0424808349609376 3.820260046619086e-18 0.2553648223876953
   vertex -1.040592529296875 5.694018898690003e-18 0.26388189697265624
   vertex -3.377132080078125 0.0 0.0
  endloop
 endfacet
 facet normal -2.3236572123965966e-17 -1.0 2.2732590829072107e-16
  outer loop
   vertex -1.040592529296875 5.694018898690003e-18 0.26388189697265624
   vertex -1.03796923828125 7.52444354517939e-18 0.2722020263671875
   vertex -3.377132080078125 0.0 0.0
  endloop
 endfacet
 facet normal -2.351764313302781e-17 -1.0 2.297412756793759e-16
  outer loop
   vertex -1.03796923828125 7.52444354517939e-18 0.2722020263671875
   vertex -1.0346307373046875 9.297601988170808e-18 0.2802618408203125
   vertex -3.377132080078125 0.0 0.0
  endloop
 endfacet
 facet normal -2.3836810772381395e-17 -1.0 2.3240895300719413e-16
  outer loop
   vertex -1.0346307373046875 9.297601988170808e-18 0.2802618408203125
   vertex -1.0306025390625 1.1000000145781549e-17 0.28800000000000003
   vertex -3.377132080078125 0.0 0.0
  endloop
 endfacet
 facet normal 4.687774392813061e-18 -1.0 0.0
  outer loop
   vertex -3.377132080078125 0.0 0.0
   vertex -1.0306025390625 1.1000000145781549e-17 0.28800000000000003
   vertex -3.377132080078125 0.0 2.088
  endloop
 endfacet
 facet normal 1.1650996422998025e-16 -1.0 1.457744761015835e-16
  outer loop
   vertex -1.0306025390625 1.1000000145781549e-17 0.28800000000000003
   vertex -1.0259151611328126 1.2618681802050412e-17 0.2953576354980469
   vertex -3.377132080078125 0.0 2.088
  endloop
 endfacet
 facet normal 1.092104394313346e-16 -1.0 1.3620048916854774e-16
  outer loop
   vertex -1.0259151611328126 1.2618681802050412e-17 0.2953576354980469
   vertex -1.0206044311523437 1.414132770979253e-17 0.30227874755859374
   vertex -3.377132080078125 0.0 2.088
  endloop
 endfacet
 facet normal 1.0193243456350513e-16 -1.0 1.2659606198897003e-16
  outer loop
   vertex -1.0206044311523437 1.414132770979253e-17 0.30227874755859374
   vertex -1.014710693359375 1.5556349611256515e-17 0.308710693359375
   vertex -3.377132080078125 0.0 2.088
  endloop
 endfacet
 facet normal 9.455935024734637e-17 -1.0 1.1680657134530706e-16
  outer loop
   vertex -1.014710693359375 1.5556349611256515e-17 0.308710693359375
   vertex -1.0082787475585937 1.685297748251803e-17 0.31460443115234377
   vertex -3.377132080078125 0.0 2.088
  endloop
 endfacet
 facet normal 8.69662358882485e-17 -1.0 1.0666389443241865e-16
  outer loop
   vertex -1.0082787475585937 1.685297748251803e-17 0.31460443115234377
   vertex -1.001357666015625 1.8021344236774513e-17 0.3199151916503906
   vertex -3.377132080078125 0.0 2.088
  endloop
 endfacet
 facet normal 7.901195462137528e-17 -1.0 9.597572168405357e-17
  outer loop
   vertex -1.001357666015625 1.8021344236774513e-17 0.3199151916503906
   vertex -0.994 1.9052559416211577e-17 0.32460253906250003
   vertex -3.377132080078125 0.0 2.088
  endloop
 endfacet
 facet normal 7.053017035170964e-17 -1.0 8.451306965432244e-17
  outer loop
   vertex -0.994 1.9052559416211577e-17 0.32460253906250003
   vertex -0.9862618408203125 1.9938771025408178e-17 0.32863076782226563
   vertex -3.377132080078125 0.0 2.088
  endloop
 endfacet
 facet normal 6.131026304296089e-17 -1.0 7.198381123809603e-17
  outer loop
   vertex -0.9862618408203125 1.9938771025408178e-17 0.32863076782226563
   vertex -0.9782020263671876 2.0673238376170065e-17 0.33196926879882815
   vertex -3.377132080078125 0.0 2.088
  endloop
 endfacet
 facet normal 5.107689404771216e-17 -1.0 5.800391625546803e-17
  outer loop
   vertex -0.9782020263671876 2.0673238376170065e-17 0.33196926879882815
   vertex -0.9698818969726563 2.125036766291357e-17 0.33459259033203126
   vertex -3.377132080078125 0.0 2.088
  endloop
 endfacet
 facet normal 3.945202859113693e-17 -1.0 4.2044157859249455e-17
  outer loop
   vertex -0.9698818969726563 2.125036766291357e-17 0.33459259033203126
   vertex -0.9613648071289063 2.166577125497192e-17 0.33648077392578124
   vertex -3.377132080078125 0.0 2.088
  endloop
 endfacet
 facet normal 2.5890695270266888e-17 -1.0 2.3339807573135034e-17
  outer loop
   vertex -0.9613648071289063 2.166577125497192e-17 0.33648077392578124
   vertex -0.952715576171875 2.1916282943188273e-17 0.33761947631835937
   vertex -3.377132080078125 0.0 2.088
  endloop
 endfacet
 facet normal -2.3707012237637534e-15 -1.0 -3.2961310936929387e-15
  outer loop
   vertex -0.952715576171875 2.1916282943188273e-17 0.33761947631835937
   vertex -0.9440000000000001 0.0 0.338
   vertex -3.377132080078125 0.0 2.088
  endloop
 endfacet
 facet normal 0.0 -1.0 0.0
  outer loop
   vertex -0.9440000000000001 0.0 0.338
   vertex -0.20120033264160156 0.0 0.338
   vertex -3.377132080078125 0.0 2.088
  endloop
 endfacet
 facet normal 0.0 -1.0 0.0
  outer loop
   vertex 0.0 0.0 0.05
   vertex 6.0188681640625 0.0 0.0
   vertex 0.0 0.0 0.24417874145507812
  endloop
 endfacet
 facet normal 0.0 -1.0 0.0
  outer loop
   vertex 0.0 0.0 0.24417874145507812
   vertex 6.0188681640625 0.0 2.088
   vertex -0.20120033264160156 0.0 0.338
  endloop
 endfacet
 facet normal 0.0 -1.0 0.0
  outer loop
   vertex -0.20120033264160156 0.0 0.338
   vertex 6.0188681640625 0.0 2.088
   vertex -3.377132080078125 0.0 2.088
  endloop
 endfacet
 facet normal 0.0 -1.0 0.0
  outer loop
   vertex 6.0188681640625 0.0 0.0
   vertex 6.0188681640625 0.0 2.088
   vertex 0.0 0.0 0.24417874145507812
  endloop
 endfacet
 facet normal 0.0 -1.0 0.0
  outer loop
   vertex -3.377132080078125 0.0 0.0
   vertex 6.0188681640625 0.0 0.0
   vertex -0.9440000000000001 0.0 0.05
  endloop
 endfacet
 facet normal 8.047656855489555e-16 -1.0 -3.9162022827084544e-14
  outer loop
   vertex -3.377132080078125 0.0 0.0
   vertex -0.9440000000000001 0.0 0.05
   vertex -0.952715576171875 -2.1916282943188273e-17 0.050380531311035155
  endloop
 endfacet
 facet normal -1.1755901618951593e-17 -1.0 1.3070468794385562e-16
  outer loop
   vertex -3.377132080078125 0.0 0.0
   vertex -0.952715576171875 -2.1916282943188273e-17 0.050380531311035155
   vertex -0.9613648071289063 -2.166577125497192e-17 0.05151922607421875
  endloop
 endfacet
 facet normal 0.0 -1.0 0.0
  outer loop
   vertex -0.9440000000000001 0.0 0.05
   vertex 6.0188681640625 0.0 0.0
   vertex 0.0 0.0 0.05
  endloop
 endfacet
endsolid patch_3_0
